<svg id="Capa_1" enable-background="new 0 0 510 510" height="512" viewBox="0 0 510 510" width="512" xmlns="http://www.w3.org/2000/svg" xmlns:xlink="http://www.w3.org/1999/xlink"><linearGradient id="SVGID_1_" gradientUnits="userSpaceOnUse" x1="255" x2="255" y1="15.752" y2="55.895"><stop offset="0" stop-color="#fef0ae"/><stop offset="1" stop-color="#fec165"/></linearGradient><linearGradient id="lg1"><stop offset="0" stop-color="#fffaf8"/><stop offset="1" stop-color="#ffdfcf"/></linearGradient><linearGradient id="SVGID_00000157304833082288906430000004063865568088905641_" gradientUnits="userSpaceOnUse" x1="233.855" x2="275.855" xlink:href="#lg1" y1="125.63" y2="206.63"/><linearGradient id="lg2"><stop offset="0" stop-color="#ffa78f" stop-opacity="0"/><stop offset="1" stop-color="#ffa78f"/></linearGradient><linearGradient id="SVGID_00000111191291025319963360000001685341288297006257_" gradientUnits="userSpaceOnUse" x1="255" x2="255" xlink:href="#lg2" y1="170.925" y2="132.922"/><linearGradient id="lg3"><stop offset="0" stop-color="#5a5a5a"/><stop offset="1" stop-color="#444"/></linearGradient><linearGradient id="SVGID_00000101090546299623925360000017790766738980166588_" gradientUnits="userSpaceOnUse" x1="231.18" x2="258.68" xlink:href="#lg3" y1="75.088" y2="133.588"/><linearGradient id="lg4"><stop offset="0" stop-color="#433f43" stop-opacity="0"/><stop offset="1" stop-color="#1a1a1a"/></linearGradient><linearGradient id="SVGID_00000101808052470282480360000014975974994937916577_" gradientUnits="userSpaceOnUse" x1="239.656" x2="261.156" xlink:href="#lg4" y1="59.626" y2="159.626"/><linearGradient id="SVGID_00000068645665329667208730000005441906962762748558_" gradientUnits="userSpaceOnUse" x1="236.063" x2="269.063" xlink:href="#lg4" y1="53.303" y2="144.303"/><linearGradient id="SVGID_00000065071646219803391940000000284141410667966131_" gradientUnits="userSpaceOnUse" x1="255" x2="255" xlink:href="#lg4" y1="97.925" y2="127.962"/><linearGradient id="SVGID_00000103238586405336518130000006329352621640839330_" gradientTransform="matrix(1 0 0 -.903 0 494.689)" gradientUnits="userSpaceOnUse" x1="213.475" x2="295.955" xlink:href="#lg1" y1="98.598" y2="257.667"/><linearGradient id="SVGID_00000048503635820637362180000006089901426108326545_" gradientUnits="userSpaceOnUse" x1="255" x2="255" xlink:href="#lg2" y1="270.592" y2="240.584"/><linearGradient id="SVGID_00000087392224371260428810000001774113840282159499_" gradientUnits="userSpaceOnUse" x1="255" x2="255" xlink:href="#lg2" y1="358.667" y2="323.333"/><linearGradient id="SVGID_00000019663070399822799840000016433401050127310779_" gradientUnits="userSpaceOnUse" x1="233.055" x2="277.055" y1="363.266" y2="474.266"><stop offset="0" stop-color="#d5daf3"/><stop offset="1" stop-color="#8795de"/></linearGradient><linearGradient id="SVGID_00000044135794154542510640000018308628174317313948_" gradientUnits="userSpaceOnUse" x1="255" x2="255" y1="399.333" y2="438.808"><stop offset="0" stop-color="#664280" stop-opacity="0"/><stop offset=".7279" stop-color="#5f3878" stop-opacity=".728"/><stop offset="1" stop-color="#5b3374"/></linearGradient><linearGradient id="SVGID_00000023278545026392158370000004033157951627280043_" gradientUnits="userSpaceOnUse" x1="236.021" x2="269.078" xlink:href="#lg3" y1="288.885" y2="359.206"/><linearGradient id="SVGID_00000081647233228294026460000012794965951505276839_" gradientUnits="userSpaceOnUse" x1="255" x2="255" xlink:href="#lg4" y1="303.063" y2="331.612"/><linearGradient id="SVGID_00000059304910704994558510000014228606437170052501_" gradientUnits="userSpaceOnUse" x1="255" x2="255" xlink:href="#lg4" y1="286.105" y2="354.765"/><linearGradient id="SVGID_00000163068266233557697440000015017499614844383117_" gradientUnits="userSpaceOnUse" x1="255" x2="255" xlink:href="#lg4" y1="297.105" y2="333.136"/><linearGradient id="SVGID_00000039832515882291539720000004411232506640361370_" gradientUnits="userSpaceOnUse" x1="255" x2="255" xlink:href="#lg4" y1="290.605" y2="319.76"/><linearGradient id="SVGID_00000117662141477610309660000008342843569903024044_" gradientUnits="userSpaceOnUse" x1="173.454" x2="288.661" xlink:href="#lg3" y1="135.122" y2="250.329"/><linearGradient id="SVGID_00000033360608810720244800000013845485680857236410_" gradientUnits="userSpaceOnUse" x1="255" x2="255" xlink:href="#lg4" y1="225.615" y2="188.931"/><linearGradient id="SVGID_00000068636243333378760700000014584570548206808756_" gradientUnits="userSpaceOnUse" x1="255" x2="255" xlink:href="#lg4" y1="213.925" y2="244.592"/><linearGradient id="SVGID_00000008135927612606115330000017467928710111626909_" gradientUnits="userSpaceOnUse" x1="230.431" x2="253.671" xlink:href="#lg1" y1="159.328" y2="182.569"/><linearGradient id="SVGID_00000067209083996706118340000003344683968191678342_" gradientUnits="userSpaceOnUse" x1="267.717" x2="243.383" xlink:href="#lg1" y1="181.875" y2="157.541"/><linearGradient id="SVGID_00000165950155886166423460000011557387132759118722_" gradientUnits="userSpaceOnUse" x1="255" x2="255" xlink:href="#lg3" y1="158.092" y2="174.99"/><linearGradient id="lg5"><stop offset="0" stop-color="#f8a6af"/><stop offset="1" stop-color="#eb5569"/></linearGradient><linearGradient id="SVGID_00000075151092142724124870000010912473361708047787_" gradientTransform="matrix(.715 -.699 .699 .715 1315.319 -621.259)" gradientUnits="userSpaceOnUse" x1="-1293.125" x2="-1259.017" xlink:href="#lg5" y1="61.163" y2="95.271"/><linearGradient id="lg6"><stop offset="0" stop-color="#fd4755" stop-opacity="0"/><stop offset="1" stop-color="#fd4755"/></linearGradient><linearGradient id="SVGID_00000084531502400416925990000001943653009716158626_" gradientTransform="matrix(.715 -.699 .699 .715 1315.319 -621.259)" gradientUnits="userSpaceOnUse" x1="-1261.957" x2="-1271.463" xlink:href="#lg6" y1="73.228" y2="93.486"/><linearGradient id="SVGID_00000131349959926843859180000006206622470969535670_" gradientTransform="matrix(.692 .722 -.722 .692 -1582.801 -1055.774)" gradientUnits="userSpaceOnUse" x1="1977.04" x2="2011.148" xlink:href="#lg5" y1="-420.587" y2="-386.479"/><linearGradient id="SVGID_00000175314255457260464300000015739981645420757695_" gradientTransform="matrix(.692 .722 -.722 .692 -1582.801 -1055.774)" gradientUnits="userSpaceOnUse" x1="2008.208" x2="1998.702" xlink:href="#lg6" y1="-408.522" y2="-388.264"/><linearGradient id="SVGID_00000131327824710811894940000003580235547436693392_" gradientUnits="userSpaceOnUse" x1="89.875" x2="130.875" xlink:href="#lg5" y1="408.579" y2="504.079"/><linearGradient id="lg7"><stop offset="0" stop-color="#fd4755" stop-opacity="0"/><stop offset="1" stop-color="#ca2e43"/></linearGradient><linearGradient id="SVGID_00000126300197255266391620000003583235616621978501_" gradientUnits="userSpaceOnUse" x1="119.028" x2="119.028" xlink:href="#lg7" y1="476.815" y2="509.83"/><linearGradient id="SVGID_00000179629562188689930730000005087771470889015963_" gradientUnits="userSpaceOnUse" x1="370.706" x2="414.706" xlink:href="#lg5" y1="397.28" y2="488.28"/><linearGradient id="SVGID_00000139264650523941059900000002898634650502925969_" gradientUnits="userSpaceOnUse" x1="435.197" x2="408.197" xlink:href="#lg7" y1="433.527" y2="464.027"/><linearGradient id="SVGID_00000152953788996865713270000009891020077460002176_" gradientUnits="userSpaceOnUse" x1="405.326" x2="405.326" xlink:href="#lg7" y1="484.05" y2="507.05"/><linearGradient id="SVGID_00000025445295552775050050000007677135793600818863_" gradientUnits="userSpaceOnUse" x1="306.566" x2="339.566" xlink:href="#lg5" y1="433.455" y2="498.455"/><linearGradient id="SVGID_00000109752194585008125340000002749669099550117012_" gradientUnits="userSpaceOnUse" x1="335.15" x2="289.15" xlink:href="#lg7" y1="476.526" y2="512.026"/><linearGradient id="SVGID_00000020388220146624976640000011604636366294467479_" gradientUnits="userSpaceOnUse" x1="332.751" x2="332.751" xlink:href="#lg7" y1="485.277" y2="509.873"/><linearGradient id="SVGID_00000000932725248973031180000006864839100362976191_" gradientUnits="userSpaceOnUse" x1="205.654" x2="281.971" xlink:href="#lg5" y1="451.769" y2="528.085"/><linearGradient id="SVGID_00000021097265305309544900000011978669302677125822_" gradientUnits="userSpaceOnUse" x1="234.175" x2="234.175" y1="479.05" y2="514.224"><stop offset="0" stop-color="#fd4755" stop-opacity="0"/><stop offset=".2614" stop-color="#f84553" stop-opacity=".261"/><stop offset=".5763" stop-color="#e93d4e" stop-opacity=".576"/><stop offset=".9175" stop-color="#d13145" stop-opacity=".918"/><stop offset="1" stop-color="#ca2e43"/></linearGradient><linearGradient id="SVGID_00000098181977692294441820000001467531435050748094_" gradientUnits="userSpaceOnUse" x1="200.4" x2="200.4" xlink:href="#lg3" y1="350.119" y2="367.017"/><linearGradient id="SVGID_00000153700139040050250610000008616842279215822510_" gradientUnits="userSpaceOnUse" x1="309.6" x2="309.6" xlink:href="#lg3" y1="350.119" y2="367.017"/><linearGradient id="SVGID_00000150100482642492920970000012141294688685243834_" gradientUnits="userSpaceOnUse" x1="200.4" x2="200.4" xlink:href="#lg3" y1="255.686" y2="272.585"/><linearGradient id="SVGID_00000170238045005022570580000017495629752923653050_" gradientUnits="userSpaceOnUse" x1="309.6" x2="309.6" xlink:href="#lg3" y1="255.686" y2="272.585"/><g><g><path d="m342.463.668c-2.266-1.341-5.229-.605-6.519 1.69-9.566 17.021-42.18 29.556-80.944 29.556s-71.378-12.534-80.945-29.555c-1.29-2.296-4.252-3.031-6.519-1.69-10.538 6.236-16.661 13.669-16.661 21.652 0 22.034 46.618 39.896 104.124 39.896s104.125-17.863 104.125-39.897c0-7.983-6.122-15.416-16.661-21.652z" fill="url(#SVGID_1_)"/><path d="m158.239 114.895h193.521v103.03h-193.521z" fill="url(#SVGID_00000157304833082288906430000004063865568088905641_)"/><path d="m158.239 114.895h193.521v103.03h-193.521z" fill="url(#SVGID_00000111191291025319963360000001685341288297006257_)"/><g><path d="m388.26 130.995h-266.5c-5.51 0-7.22-7.72-2.11-9.76.21-.09.42-.16.64-.23 30.41-8.81 47.23-45.87 56.23-77.53 1.05-3.71 4.47-6.26 8.33-6.26h3.048c8.46 0 16.896.735 25.239 2.143 12.809 2.161 26.968 3.357 41.863 3.357s29.055-1.196 41.863-3.357c8.342-1.408 16.778-2.143 25.239-2.143h3.138c3.86 0 7.27 2.55 8.33 6.26 8.99 31.66 25.82 68.72 56.22 77.53.04.02.09.03.13.04 5.52 1.71 4.12 9.95-1.66 9.95z" fill="url(#SVGID_00000101090546299623925360000017790766738980166588_)"/><path d="m351.173 130.995c-.369-1.346-1.056-2.473-2.102-3.025-.028-.012-.063-.024-.091-.047-20.85-10.291-32.541-53.036-38.883-90.213-4.43.359-8.845.908-13.234 1.648-12.809 2.161-26.968 3.357-41.863 3.357s-29.055-1.196-41.863-3.357c-4.368-.737-8.762-1.285-13.172-1.644-6.349 37.176-18.033 79.918-38.889 90.208-.153.083-.3.166-.446.273-.882.6-1.471 1.614-1.802 2.8z" fill="url(#SVGID_00000101808052470282480360000014975974994937916577_)"/><path d="m287.888 130.995c-.126-1.346-.361-2.473-.719-3.025-.01-.012-.021-.024-.031-.047-6.855-9.894-10.815-49.789-13.038-85.89-6.195.44-12.571.683-19.1.683-6.522 0-12.891-.242-19.079-.681-2.225 36.101-6.183 75.995-13.04 85.889-.052.083-.103.166-.153.273-.302.6-.503 1.614-.616 2.8h65.776z" fill="url(#SVGID_00000068645665329667208730000005441906962762748558_)"/><path d="m120.29 121.005c-.22.07-.43.14-.64.23-5.11 2.04-3.4 9.76 2.11 9.76h266.5c5.78 0 7.18-8.24 1.66-9.95-.04-.01-.09-.02-.13-.04-18.232-5.284-31.579-20.733-41.285-39.08h-186.925c-9.706 18.347-23.052 33.796-41.29 39.08z" fill="url(#SVGID_00000065071646219803391940000000284141410667966131_)"/></g><path d="m116.596 217.925h276.809v230.953h-276.809z" fill="url(#SVGID_00000103238586405336518130000006329352621640839330_)"/><path d="m116.596 217.925h276.809v58.667h-276.809z" fill="url(#SVGID_00000048503635820637362180000006089901426108326545_)"/><path d="m116.596 316.966h276.809v58.667h-276.809z" fill="url(#SVGID_00000087392224371260428810000001774113840282159499_)"/><path d="m116.596 388.376h276.809v60.501h-276.809z" fill="url(#SVGID_00000019663070399822799840000016433401050127310779_)"/><path d="m116.596 388.376h276.809v60.501h-276.809z" fill="url(#SVGID_00000044135794154542510640000018308628174317313948_)"/><g><path d="m471.025 334.495h-432.031c-5.51 0-7.22-7.72-2.11-9.76.21-.09.42-.16.64-.23 14.73-4.268 26.267-15.162 35.264-28.858 3.181-4.842 8.554-7.791 14.347-7.791h335.809c5.793 0 11.166 2.949 14.347 7.79 8.999 13.697 20.543 24.592 35.264 28.86.04.02.09.03.13.04 5.52 1.709 4.121 9.949-1.66 9.949z" fill="url(#SVGID_00000023278545026392158370000004033157951627280043_)"/><path d="m471.025 334.495h-432.031c-5.51 0-7.22-7.72-2.11-9.76.21-.09.42-.16.64-.23 14.732-4.268 26.264-15.166 35.272-28.866 3.181-4.838 8.552-7.784 14.343-7.784h335.803c5.79 0 11.161 2.945 14.342 7.783 9.01 13.7 20.547 24.599 35.272 28.867.04.02.09.03.13.04 5.519 1.71 4.12 9.95-1.661 9.95z" fill="url(#SVGID_00000081647233228294026460000012794965951505276839_)"/><path d="m433.935 334.495h-357.871c.33-1.19.92-2.2 1.8-2.8.15-.11.29-.19.45-.27 12.16-6 21.2-23.04 27.88-43.57h297.671c6.68 20.54 15.72 37.57 27.88 43.57.03.02.06.03.09.04 1.05.56 1.731 1.68 2.1 3.03z" fill="url(#SVGID_00000059304910704994558510000014228606437170052501_)"/><path d="m370.655 334.495h-231.311c.12-1.19.32-2.2.62-2.8.05-.11.1-.19.15-.27 4.16-6 7.25-23.04 9.54-43.57h210.711c2.29 20.53 5.38 37.57 9.54 43.57.01.02.02.03.03.04.361.56.59 1.68.72 3.03z" fill="url(#SVGID_00000163068266233557697440000015017499614844383117_)"/><path d="m300.651 334.495h-91.302c.047-1.19.126-2.2.245-2.8.02-.11.039-.19.059-.27 1.642-6 2.862-23.04 3.766-43.57h83.171c.904 20.53 2.124 37.57 3.766 43.57.004.02.008.03.012.04.141.56.232 1.68.283 3.03z" fill="url(#SVGID_00000039832515882291539720000004411232506640361370_)"/></g><g><path d="m232.851 102.782c-30.621 47.985-89.323 122.062-152.656 107.216-2.921-.685-5.471 2.062-4.517 4.906 3.762 11.214 16.203 32.772 56.265 32.772h123.058s68.912 0 123.058 0c40.062 0 52.503-21.557 56.265-32.772.954-2.844-1.596-5.59-4.517-4.906-63.333 14.846-122.035-59.231-152.656-107.216-10.334-16.191-33.968-16.191-44.3 0z" fill="url(#SVGID_00000117662141477610309660000008342843569903024044_)"/><path d="m255 247.676h107.288l-96.045-110.9c-5.913-6.889-16.573-6.889-22.486 0l-96.044 110.9z" fill="url(#SVGID_00000033360608810720244800000013845485680857236410_)"/><path d="m80.195 209.998c-2.921-.685-5.471 2.062-4.517 4.906 3.762 11.214 16.203 32.772 56.265 32.772h123.057s68.912 0 123.057 0c40.062 0 52.503-21.557 56.265-32.772.954-2.844-1.596-5.591-4.517-4.906-35.527 8.328-69.596-11.327-98.069-38.66h-153.472c-28.473 27.333-62.542 46.988-98.069 38.66z" fill="url(#SVGID_00000068636243333378760700000014584570548206808756_)"/><path d="m307.007 183.268-40.764-47.493c-5.913-6.889-16.574-6.889-22.486 0l-40.764 47.493c-3.424 3.989-.589 10.156 4.667 10.156h94.679c5.257.001 8.091-6.167 4.668-10.156z" fill="url(#SVGID_00000008135927612606115330000017467928710111626909_)"/><path d="m271.671 186.39h-33.341c-3.621 0-6.556-2.935-6.556-6.556v-21.353c0-3.621 2.935-6.556 6.556-6.556h33.341c3.621 0 6.556 2.935 6.556 6.556v21.353c0 3.621-2.936 6.556-6.556 6.556z" fill="url(#SVGID_00000067209083996706118340000003344683968191678342_)"/><path d="m259.75 179.324h-9.5c-5.615 0-10.167-4.552-10.167-10.167 0-5.615 4.552-10.167 10.167-10.167h9.5c5.615 0 10.167 4.552 10.167 10.167 0 5.615-4.552 10.167-10.167 10.167z" fill="url(#SVGID_00000165950155886166423460000011557387132759118722_)"/></g></g><g><path d="m446.995 295.566c-.523 5.152-1.263 11.776-.659 16.025.166 1.166-.849 2.15-2.011 1.954-4.169-.702-10.635-.112-15.987.3-2.12.163-3.684 2.063-3.411 4.171.079.611.176 1.256.289 1.928 2.512 14.97 12.986 27.394 27.31 32.416 11.503 4.033 25.691 8.194 36.341 8.671 2.151.096 3.945-1.657 3.881-3.809-.308-10.312-4.19-24.734-7.958-36.483-4.814-15.012-17.671-26.12-33.264-28.441-.102-.015-.203-.03-.304-.044-2.095-.295-4.014 1.208-4.227 3.312z" fill="url(#SVGID_00000075151092142724124870000010912473361708047787_)"/><path d="m451.221 292.255c-2.095-.296-4.013 1.207-4.227 3.311-.523 5.152-1.263 11.776-.659 16.025.094.66-.19 1.26-.665 1.622l45.815 46.891c.796-.701 1.294-1.732 1.26-2.881-.308-10.312-4.19-24.734-7.958-36.483-4.814-15.012-17.671-26.12-33.264-28.441-.1-.015-.201-.03-.302-.044z" fill="url(#SVGID_00000084531502400416925990000001943653009716158626_)"/></g><g><path d="m119.092 95.045c-5.146-.574-11.763-1.379-16.017-.817-1.168.155-2.141-.87-1.934-2.03.743-4.162.216-10.633-.143-15.989-.142-2.121-2.027-3.704-4.138-3.452-.612.073-1.258.164-1.931.27-14.994 2.364-27.521 12.715-32.683 26.99-4.146 11.463-8.447 25.609-9.028 36.254-.117 2.15 1.618 3.961 3.771 3.918 10.314-.206 24.774-3.947 36.56-7.599 15.058-4.666 26.293-17.413 28.767-32.982.016-.102.032-.203.047-.303.315-2.092-1.169-4.025-3.271-4.26z" fill="url(#SVGID_00000131349959926843859180000006206622470969535670_)"/><path d="m122.362 99.304c.316-2.092-1.167-4.025-3.27-4.259-5.146-.574-11.763-1.379-16.017-.817-.66.087-1.258-.203-1.616-.681l-47.339 45.353c.693.803 1.72 1.311 2.869 1.288 10.314-.206 24.774-3.947 36.56-7.599 15.058-4.666 26.293-17.413 28.767-32.982.015-.101.031-.202.046-.303z" fill="url(#SVGID_00000175314255457260464300000015739981645420757695_)"/></g><g><g><path d="m35.654 510h165.711c11.342 0 22.376-4.958 29.079-14.108.2-.274.412-.542.633-.804 4.385-5.182 7.016-11.892 6.979-19.213-.054-10.452-5.531-19.606-13.75-24.813-5.306-3.361-8.45-9.198-8.774-15.47-.005-.091-.01-.181-.016-.272-.725-11.447-10.142-20.705-21.599-21.242-.097-.005-.194-.008-.291-.012-6.079-.209-11.875-2.956-15.431-7.891-4.15-5.758-10.926-9.492-18.565-9.453l-.706.004c-3.749.02-7.463-.78-10.851-2.385-9.584-4.541-19.553-7.222-29.504-7.171-9.948.051-19.885 2.833-29.42 7.469-3.374 1.641-7.083 2.48-10.835 2.501l-.706.004c-7.639.039-14.377 3.843-18.467 9.643-3.505 4.971-9.272 7.778-15.349 8.049-.097.004-.194.009-.291.015-11.451.654-20.773 10.009-21.38 21.462-.02.379-.033.755-.014 1.142.294 5.814-2.901 11.207-7.878 14.228-8.575 5.206-14.284 14.651-14.229 25.414.036 7.038 2.532 13.486 6.668 18.537.033.04.066.081.099.122 7.083 8.83 17.567 14.244 28.887 14.244z" fill="url(#SVGID_00000131327824710811894940000003580235547436693392_)"/><path d="m0 477.097c.036 7.038 2.532 13.486 6.668 18.537.033.041.066.081.099.122 7.083 8.83 17.567 14.244 28.887 14.244h165.711c11.342 0 22.376-4.958 29.079-14.108.201-.274.412-.542.633-.804 4.385-5.182 7.016-11.892 6.979-19.213-.04-7.824-3.12-14.92-8.114-20.178h-220.897c-5.606 5.406-9.088 12.996-9.045 21.4z" fill="url(#SVGID_00000126300197255266391620000003583235616621978501_)"/></g><path d="m472.326 432.099c-2.924-.082-5.777.162-8.525.696-6.377 1.24-12.663-2.73-14.499-8.961-6.848-23.237-28.334-40.198-53.789-40.198-21.715 0-40.536 12.347-49.851 30.4-2.32 4.496-6.473 7.672-11.391 8.86-20.437 4.938-35.305 24.147-33.464 46.488 1.774 21.527 19.37 38.775 40.926 40.162 14.993.964 111.494.094 129.491.094 22.227 0 40.086-18.7 38.702-41.225-1.22-19.842-17.73-35.762-37.6-36.316z" fill="url(#SVGID_00000179629562188689930730000005087771470889015963_)"/><path d="m472.326 432.099c-2.924-.082-5.777.162-8.525.696-6.377 1.24-12.663-2.73-14.499-8.961-6.848-23.237-28.334-40.198-53.789-40.198-21.715 0-40.536 12.347-49.851 30.4-2.32 4.496-6.473 7.672-11.391 8.86-20.437 4.938-35.305 24.147-33.464 46.488 1.774 21.527 19.37 38.775 40.926 40.162 14.993.964 111.494.094 129.491.094 22.227 0 40.086-18.7 38.702-41.225-1.22-19.842-17.73-35.762-37.6-36.316z" fill="url(#SVGID_00000139264650523941059900000002898634650502925969_)"/><path d="m300.805 469.384c1.774 21.527 19.37 38.775 40.926 40.162 14.993.964 111.494.094 129.491.094 22.227 0 40.086-18.7 38.703-41.225-.451-7.341-2.999-14.142-7.032-19.83h-198.797c-2.663 6.317-3.902 13.383-3.291 20.799z" fill="url(#SVGID_00000152953788996865713270000009891020077460002176_)"/><g><path d="m270.639 510h123.452c8.45 0 16.67-3.694 21.663-10.51.149-.204.307-.404.472-.599 3.267-3.86 5.227-8.859 5.199-14.314-.04-7.787-4.12-14.606-10.243-18.485-3.953-2.504-6.295-6.852-6.537-11.525-.003-.067-.007-.135-.012-.203-.54-8.528-7.556-15.425-16.091-15.825-.072-.003-.144-.006-.216-.009-4.529-.155-8.846-2.202-11.496-5.879-3.092-4.29-8.14-7.072-13.831-7.042l-.526.003c-2.793.015-5.56-.581-8.084-1.777-7.14-3.383-14.566-5.38-21.98-5.342-7.411.038-14.814 2.11-21.917 5.565-2.514 1.223-5.277 1.848-8.072 1.863l-.526.003c-5.691.029-10.71 2.863-13.758 7.184-2.611 3.703-6.908 5.795-11.435 5.996-.072.003-.144.007-.216.011-8.531.487-15.475 7.456-15.928 15.989-.015.283-.025.563-.01.85.219 4.332-2.162 8.349-5.869 10.6-6.389 3.879-10.642 10.915-10.601 18.933.027 5.243 1.886 10.047 4.967 13.81.025.03.049.06.074.091 5.277 6.579 13.088 10.612 21.521 10.612z" fill="url(#SVGID_00000025445295552775050050000007677135793600818863_)"/><path d="m270.639 510h123.452c8.45 0 16.67-3.694 21.663-10.51.149-.204.307-.404.472-.599 3.267-3.86 5.227-8.859 5.199-14.314-.04-7.787-4.12-14.606-10.243-18.485-3.953-2.504-6.295-6.852-6.537-11.525-.003-.067-.007-.135-.012-.203-.54-8.528-7.556-15.425-16.091-15.825-.072-.003-.144-.006-.216-.009-4.529-.155-8.846-2.202-11.496-5.879-3.092-4.29-8.14-7.072-13.831-7.042l-.526.003c-2.793.015-5.56-.581-8.084-1.777-7.14-3.383-14.566-5.38-21.98-5.342-7.411.038-14.814 2.11-21.917 5.565-2.514 1.223-5.277 1.848-8.072 1.863l-.526.003c-5.691.029-10.71 2.863-13.758 7.184-2.611 3.703-6.908 5.795-11.435 5.996-.072.003-.144.007-.216.011-8.531.487-15.475 7.456-15.928 15.989-.015.283-.025.563-.01.85.219 4.332-2.162 8.349-5.869 10.6-6.389 3.879-10.642 10.915-10.601 18.933.027 5.243 1.886 10.047 4.967 13.81.025.03.049.06.074.091 5.277 6.579 13.088 10.612 21.521 10.612z" fill="url(#SVGID_00000109752194585008125340000002749669099550117012_)"/><path d="m244.077 485.488c.027 5.243 1.886 10.047 4.967 13.81.025.03.049.06.074.091 5.277 6.579 13.087 10.612 21.521 10.612h123.452c8.45 0 16.67-3.694 21.663-10.51.149-.204.307-.404.472-.599 3.267-3.86 5.227-8.859 5.199-14.314-.03-5.829-2.325-11.115-6.045-15.032h-164.565c-4.176 4.027-6.77 9.681-6.738 15.942z" fill="url(#SVGID_00000020388220146624976640000011604636366294467479_)"/></g><path d="m283.156 453.05c-2.138-.06-4.223.118-6.233.509-4.662.906-9.257-1.995-10.6-6.551-5.006-16.988-20.713-29.388-39.323-29.388-15.875 0-29.634 9.026-36.444 22.224-1.696 3.287-4.732 5.609-8.328 6.478-14.941 3.61-25.81 17.653-24.464 33.985 1.297 15.738 14.161 28.347 29.919 29.361 10.961.705 81.509.068 94.666.068 16.249 0 29.305-13.671 28.294-30.138-.891-14.504-12.961-26.143-27.487-26.548z" fill="url(#SVGID_00000000932725248973031180000006864839100362976191_)"/><path d="m310.643 479.598c-.649-10.571-7.239-19.614-16.388-23.902h-128c-5.904 6.352-9.275 15.09-8.491 24.61 1.297 15.738 14.161 28.347 29.919 29.361 10.961.705 81.509.068 94.666.068 16.249.001 29.305-13.669 28.294-30.137z" fill="url(#SVGID_00000021097265305309544900000011978669302677125822_)"/></g><g><path d="m205.15 371.351h-9.5c-5.615 0-10.167-4.552-10.167-10.167 0-5.615 4.552-10.167 10.167-10.167h9.5c5.615 0 10.167 4.552 10.167 10.167 0 5.615-4.552 10.167-10.167 10.167z" fill="url(#SVGID_00000098181977692294441820000001467531435050748094_)"/><path d="m314.35 371.351h-9.5c-5.615 0-10.167-4.552-10.167-10.167 0-5.615 4.552-10.167 10.167-10.167h9.5c5.615 0 10.167 4.552 10.167 10.167-.001 5.615-4.552 10.167-10.167 10.167z" fill="url(#SVGID_00000153700139040050250610000008616842279215822510_)"/></g><g><path d="m205.15 276.919h-9.5c-5.615 0-10.167-4.552-10.167-10.167 0-5.615 4.552-10.167 10.167-10.167h9.5c5.615 0 10.167 4.552 10.167 10.167 0 5.615-4.552 10.167-10.167 10.167z" fill="url(#SVGID_00000150100482642492920970000012141294688685243834_)"/><path d="m314.35 276.919h-9.5c-5.615 0-10.167-4.552-10.167-10.167 0-5.615 4.552-10.167 10.167-10.167h9.5c5.615 0 10.167 4.552 10.167 10.167-.001 5.615-4.552 10.167-10.167 10.167z" fill="url(#SVGID_00000170238045005022570580000017495629752923653050_)"/></g></g></svg>