<svg id="Layer_1" enable-background="new 0 0 512 512" height="512" viewBox="0 0 512 512" width="512" xmlns="http://www.w3.org/2000/svg"><g><g clip-rule="evenodd" fill-rule="evenodd"><circle cx="256" cy="256.036" fill="#ff5a58" r="90"/><path d="m256 166.036c49.706 0 90 40.295 90 90s-40.294 90-90 90-90-40.294-90-90 40.294-90 90-90zm1.531 257.674c76.86-10.766 149.494-20.488 226.114-.85 1.402.466 2.904.719 4.467.719 7.669 0 13.887-6.095 13.887-13.612v-308.425c.004-6.023-4.14-11.529-10.361-13.134-83.858-21.744-154.427-10.271-238.017-.029-73.399 10.28-147.837 20.703-225.485.48-1.34-.422-2.768-.65-4.25-.65-7.668.001-13.886 6.095-13.886 13.613v308.425c-.004 6.01 4.104 11.509 10.307 13.134 84.221 22.12 153.351 10.606 237.224.329z" fill="#fff"/></g><g><path d="m494.149 78.729c-79.357-20.578-145.915-12.251-222.98-2.606-6.188.773-12.438 1.556-18.764 2.331-.057.007-.114.015-.171.022-71.64 10.033-145.714 20.409-221.367.761-2.26-.682-4.606-1.027-6.98-1.027-13.172-.001-23.887 10.592-23.887 23.612v308.419c-.007 10.689 7.302 20.071 17.767 22.812 36.514 9.59 70.511 12.953 103.342 12.953 31.673 0 62.261-3.132 92.954-6.825 5.483-.66 9.394-5.641 8.733-11.124-.66-5.483-5.645-9.392-11.123-8.733-62.825 7.562-120.396 12.358-188.832-5.616-1.673-.438-2.842-1.858-2.841-3.46v-308.426c0-1.992 1.744-3.612 3.887-3.612.43 0 .85.063 1.247.188.16.051.321.097.483.139 79.558 20.722 155.688 10.069 229.312-.242 6.312-.773 12.549-1.555 18.723-2.327 75.029-9.387 139.826-17.493 215.491 2.125 1.683.434 2.858 1.85 2.857 3.449v308.426c0 1.992-1.744 3.612-3.887 3.612-.454 0-.895-.07-1.308-.208-.223-.074-.449-.141-.676-.198-65.176-16.704-127.536-12.447-185.215-5.363-5.482.674-9.38 5.663-8.706 11.146.673 5.481 5.667 9.372 11.145 8.706 55.646-6.837 115.66-10.98 177.518 4.81 2.338.735 4.773 1.108 7.244 1.108 13.171 0 23.887-10.593 23.887-23.612v-308.421c.004-10.724-7.342-20.11-17.853-22.819z"/><path d="m356 256.036c0-55.141-44.86-100-100-100s-100 44.859-100 100 44.86 100 100 100 100-44.859 100-100zm-180 0c0-44.112 35.888-80 80-80s80 35.888 80 80-35.888 80-80 80-80-35.887-80-80z"/><path d="m257.531 413.71h-.007c-5.523 0-9.996 4.478-9.996 10s4.48 10 10.003 10 10-4.478 10-10-4.477-10-10-10z"/></g></g></svg>