<svg enable-background="new 0 0 512 512" viewBox="0 0 512 512" xmlns="http://www.w3.org/2000/svg"><g id="_x35_0_Hot_Tea"/><g id="_x34_9_Drum"/><g id="_x34_8_Fireworks"/><g id="_x34_7_Sakura"><g><g><g fill="#935d51"><path d="m360.846 237.79-22.173 33.385c-1.304-1.134-2.658-2.228-4.055-3.277l-40.8-30.506c-25.495-19.063-31.925-54.589-14.735-81.388l31.187-48.588-11.516 38.541c-7.769 26.01 2.664 54.007 25.564 68.583z"/><path d="m378.867 316.725 34.154 20.97c-1.087 1.343-2.132 2.736-3.131 4.169l-29.033 41.861c-18.142 26.158-53.417 33.85-80.811 17.625l-49.668-29.436 38.926 10.135c26.27 6.838 53.878-4.586 67.629-27.991z"/><path d="m503.392 277.338v100.557c0 9.935-11.11 15.825-19.333 10.25l-76.389-51.787c-18.21-12.345-39.704-18.944-61.704-18.944h-74.798c-18.898 0-36.981-7.696-50.083-21.316l-54.769-56.935c-18.813-19.557-48.322-24.249-72.273-11.492l-35.509 18.913 41.463-40.18c22.864-22.157 58.962-22.88 82.695-1.657l37.974 33.959c18.462 16.509 44.314 21.946 67.862 14.27l57.812-18.845c24.05-7.84 50.067-7.148 73.666 1.959l74.923 28.911c5.1 1.968 8.463 6.871 8.463 12.337z"/></g><path d="m418.789 279.65c-23.947-10.118-50.338-13.637-74.741-9.936l-58.662 8.881c-23.886 3.619-50.115-3.761-68.851-19.354l-38.526-32.089c-24.079-20.054-60.71-23.541-83.906-7.999l-23.531 15.765-10.017 9.713-2.018 1.957 6.134-3.265 29.371-15.654c23.957-12.754 53.46-8.06 72.278 11.497l54.768 56.928c13.099 13.627 31.186 21.322 50.084 21.322h74.792c22.001 0 43.494 6.6 61.703 18.939l76.395 51.79c8.223 5.575 19.333-.316 19.333-10.25v-62.476z" fill="#7c473e"/></g><g><g><g><g><path d="m244.565 90.062.974-1.156c1.594-1.891 1.009-4.773-1.196-5.892l-12.466-6.329c-2.583-1.311-3.61-4.471-2.291-7.05l6.365-12.447c1.126-2.202-.095-4.877-2.496-5.47-21.915-5.41-45.043 1.419-60.505 17.865l-10.754 11.439c-8.448 8.986-3.648 23.758 8.468 26.062l16.909 3.216c21.259 4.042 43.045-3.694 56.992-20.238z" fill="#ff929f"/><path d="m244.343 83.014-12.466-6.329c-2.583-1.311-3.61-4.471-2.291-7.05l6.365-12.447c1.12-2.189-.079-4.872-2.466-5.463-11.905-2.945-24.166-2.27-35.366 1.589.736 1.105.896 2.571.23 3.874l-.688 1.346c-4.451 8.705-.986 19.37 7.732 23.796 2.893 1.469 3.661 5.252 1.57 7.733-7.509 8.907-17.291 15.255-28.038 18.593l8.649 1.645c21.256 4.042 43.041-3.692 56.988-20.235l.977-1.158c1.594-1.892 1.009-4.774-1.196-5.894z" fill="#ff7694"/></g></g><g><g><path d="m190.394 180.147 1.4.57c2.29.932 4.851-.516 5.234-2.958l2.167-13.812c.449-2.862 3.137-4.815 5.997-4.357l13.805 2.207c2.442.39 4.609-1.598 4.431-4.064-1.627-22.514-15.269-42.4-35.687-52.023l-14.203-6.693c-11.157-5.258-23.722 3.872-22.17 16.107l2.167 17.076c2.725 21.466 16.815 39.795 36.859 47.947z" fill="#ff929f"/><path d="m223.429 157.732c0-21.491-12.405-41.051-31.846-50.212l-18.044-8.504c-7.58-3.572-15.805-.499-19.817 5.673l6.006 2.83c19.441 9.161 31.846 28.721 31.846 50.213 0 2.504-2.24 4.414-4.712 4.019l-13.524-2.162c-2.729-.436-5.297 1.324-5.917 3.972 6.12 7.165 13.938 12.911 22.972 16.586l1.4.57c2.291.932 4.851-.516 5.234-2.959l2.167-13.812c.449-2.862 3.137-4.815 5.997-4.357l13.524 2.162c2.474.396 4.714-1.514 4.714-4.019z" fill="#ff7694"/></g></g><g><g><path d="m87.979 156.465-.109 1.508c-.178 2.466 1.989 4.454 4.431 4.064l13.805-2.207c2.86-.457 5.548 1.496 5.997 4.357l2.167 13.812c.383 2.443 2.944 3.89 5.234 2.958 20.909-8.504 35.607-27.624 38.449-50.017l1.977-15.576c1.553-12.235-11.013-21.365-22.17-16.107l-15.57 7.338c-19.574 9.223-32.652 28.287-34.211 49.87z" fill="#ff929f"/><path d="m137.76 99.257-11.57 5.453c1.99 2.95 3.012 6.632 2.502 10.655l-1.977 15.576c-1.574 12.401-6.789 23.793-14.675 32.94.022.102.048.203.064.307l2.167 13.812c.383 2.443 2.944 3.89 5.234 2.958 20.909-8.504 35.607-27.624 38.449-50.017l1.977-15.576c1.552-12.236-11.014-21.366-22.171-16.108z" fill="#ff7694"/></g></g><g><g><path d="m78.854 51.744-1.468.362c-2.401.593-3.621 3.269-2.496 5.47l6.365 12.447c1.319 2.579.292 5.739-2.291 7.05l-12.466 6.329c-2.205 1.119-2.79 4.002-1.196 5.892 14.549 17.258 37.275 25.328 59.45 21.111l15.424-2.933c12.116-2.304 16.916-17.076 8.468-26.062l-11.79-12.541c-14.82-15.765-36.992-22.312-58-17.125z" fill="#ff929f"/><path d="m148.645 81.41-11.79-12.541c-.637-.678-1.293-1.333-1.957-1.976-1.602-.285-3.249-.442-4.933-.442-15.45 0-27.975 12.525-27.975 27.975 0 6.322 2.099 12.152 5.635 16.837 5.646.495 11.405.232 17.127-.857l15.424-2.933c12.118-2.305 16.917-17.077 8.469-26.063z" fill="#ff7694"/></g></g><g><g><path d="m175.63 10.705-.798-1.284c-1.305-2.1-4.228-2.434-5.974-.683l-9.871 9.9c-2.045 2.051-5.368 2.051-7.413 0l-9.871-9.9c-1.746-1.751-4.668-1.417-5.974.683-11.917 19.17-12.57 43.277-1.707 63.064l7.556 13.763c5.936 10.811 21.468 10.811 27.403 0l8.284-15.088c10.414-18.968 9.789-42.078-1.635-60.455z" fill="#ff929f"/><path d="m175.63 10.705-.798-1.284c-1.305-2.1-4.228-2.434-5.974-.683l-9.871 9.9c-1.971 1.977-5.118 2.029-7.175.195 7.15 16.759 6.344 36.064-2.585 52.327l-7.966 14.51.317.578c5.935 10.811 21.468 10.811 27.403 0l8.284-15.088c10.414-18.968 9.789-42.078-1.635-60.455z" fill="#ff7694"/></g></g></g><g><circle cx="155.421" cy="94.426" fill="#fdf4e7" r="27.975"/><path d="m155.421 66.451c-5.097 0-9.872 1.37-13.988 3.752 8.359 4.838 13.988 13.87 13.988 24.223s-5.628 19.386-13.988 24.223c4.116 2.382 8.89 3.752 13.988 3.752 15.45 0 27.975-12.525 27.975-27.975s-12.525-27.975-27.975-27.975z" fill="#ffdab6"/></g></g><g><path d="m164.559 339.25-8.764-4.449c-1.816-.922-2.538-3.143-1.61-4.957l4.747-9.284c.775-1.515-.326-3.313-2.027-3.313-12.046-2.974-24.61-.684-34.715 5.981-.635.419-1.456-.168-1.245-.899 3.269-11.323 1.677-23.666-4.694-33.915l-.561-.903c-.918-1.476-2.972-1.711-4.2-.48l-6.94 6.96c-1.438 1.442-3.774 1.442-5.212 0l-6.458-6.476c-1.287-1.29-3.393-1.292-4.682-.003-6.55 10.537-8.255 23.195-5.039 34.864.202.734-.61 1.333-1.24.906-9.758-6.608-21.989-8.908-33.706-6.016l-1.032.255c-1.688.417-2.546 2.298-1.755 3.846l4.475 8.751c.927 1.813.205 4.035-1.61 4.957l-8.962 4.55c-1.533.778-1.859 2.826-.643 4.042 7.997 9.486 19.508 15.019 31.601 15.566.76.034 1.079.992.478 1.459-9.3 7.239-15.267 18.16-16.137 30.197l-.077 1.06c-.125 1.734 1.399 3.132 3.115 2.857l9.706-1.552c2.011-.322 3.901 1.051 4.216 3.063l1.33 8.477c.286 1.822 2.029 3.313 3.873 3.313 11.493-4.674 20.312-13.912 24.569-25.244.268-.712 1.277-.72 1.536-.004 4.01 11.082 12.553 20.132 23.733 24.679l.984.4c1.61.655 3.41-.363 3.68-2.08l1.523-9.71c.316-2.012 2.205-3.385 4.216-3.063l9.508 1.52c1.738.278 3.313-1.065 3.313-2.825-.894-12.375-6.955-23.617-16.416-31.168-.595-.475-.29-1.437.471-1.462 11.779-.39 23.026-5.718 30.805-14.945l.685-.813c1.122-1.328.711-3.355-.839-4.142z" fill="#ffcad3"/><path d="m164.559 339.25-8.764-4.449c-1.816-.922-2.538-3.143-1.61-4.957l4.747-9.284c.775-1.515-.326-3.313-2.027-3.313-12.045-2.974-24.61-.684-34.715 5.981-.635.419-1.456-.168-1.245-.899 3.269-11.323 1.677-23.666-4.694-33.915l-.561-.903c-.918-1.476-2.972-1.711-4.2-.48l-6.94 6.96c-.673.675-1.544 1.022-2.427 1.064v87.272c.322-.005.644.17.775.532 4.01 11.082 12.553 20.132 23.733 24.679l.985.4c1.61.655 3.41-.363 3.68-2.08l1.523-9.71c.316-2.012 2.205-3.385 4.216-3.063l9.508 1.52c1.738.278 3.313-1.065 3.313-2.825-.894-12.375-6.955-23.617-16.416-31.168-.595-.475-.29-1.437.471-1.462 11.779-.39 23.026-5.718 30.805-14.945l.685-.813c1.119-1.328.708-3.355-.842-4.142z" fill="#ffaec1"/></g><g><path d="m384.996 60.622-8.764-4.449c-1.816-.922-2.538-3.143-1.61-4.957l4.747-9.284c.775-1.515-.326-3.313-2.027-3.313-12.046-2.974-24.61-.684-34.715 5.981-.635.419-1.456-.168-1.245-.899 3.269-11.323 1.677-23.666-4.694-33.915l-.561-.903c-.918-1.476-2.972-1.711-4.2-.48l-6.94 6.96c-1.438 1.442-3.774 1.442-5.212 0l-6.458-6.476c-1.287-1.29-3.393-1.292-4.682-.003-6.55 10.537-8.255 23.195-5.039 34.864.202.734-.61 1.333-1.24.906-9.758-6.608-21.989-8.908-33.706-6.016l-1.032.255c-1.688.417-2.546 2.298-1.755 3.846l4.475 8.751c.927 1.813.205 4.035-1.61 4.957l-8.962 4.55c-1.533.778-1.859 2.826-.643 4.042 7.997 9.486 19.508 15.019 31.601 15.566.76.034 1.079.992.478 1.459-9.3 7.239-15.267 18.16-16.137 30.198l-.077 1.06c-.125 1.734 1.399 3.132 3.115 2.857l9.706-1.552c2.011-.322 3.901 1.051 4.216 3.063l1.33 8.477c.286 1.822 2.029 3.313 3.873 3.313 11.493-4.674 20.312-13.912 24.569-25.244.268-.712 1.277-.72 1.536-.004 4.01 11.082 12.553 20.132 23.733 24.679l.984.4c1.61.655 3.41-.363 3.68-2.08l1.523-9.71c.316-2.012 2.205-3.385 4.216-3.063l9.508 1.52c1.738.278 3.313-1.065 3.313-2.825-.894-12.375-6.955-23.617-16.416-31.168-.595-.475-.29-1.437.471-1.462 11.779-.39 23.026-5.718 30.805-14.945l.685-.813c1.123-1.329.711-3.356-.839-4.143z" fill="#ffcad3"/><path d="m384.996 60.622-8.764-4.449c-1.816-.922-2.538-3.143-1.61-4.957l4.747-9.284c.775-1.515-.326-3.313-2.027-3.313-12.045-2.974-24.61-.684-34.715 5.981-.635.419-1.456-.168-1.245-.899 3.269-11.323 1.677-23.666-4.694-33.915l-.561-.903c-.918-1.476-2.972-1.711-4.2-.48l-6.94 6.96c-.673.675-1.544 1.022-2.427 1.064v87.273c.322-.005.644.17.775.532 4.01 11.082 12.553 20.132 23.733 24.679l.984.4c1.61.655 3.41-.363 3.68-2.08l1.523-9.71c.316-2.012 2.205-3.385 4.216-3.063l9.508 1.52c1.738.278 3.313-1.065 3.313-2.825-.894-12.375-6.955-23.617-16.416-31.168-.595-.475-.29-1.437.471-1.462 11.779-.39 23.026-5.718 30.805-14.945l.685-.813c1.121-1.329.709-3.356-.841-4.143z" fill="#ffaec1"/></g><g><path d="m481.643 203.132.121-1.377c.198-2.252-1.755-4.101-3.993-3.779l-12.652 1.821c-2.622.377-5.051-1.447-5.421-4.069l-1.784-12.658c-.315-2.239-2.636-3.598-4.743-2.779-19.237 7.476-32.947 24.745-35.865 45.177l-2.03 14.211c-1.594 11.163 9.763 19.689 20.038 15.042l14.339-6.486c18.028-8.153 30.256-25.394 31.99-45.103z" fill="#ffcad3"/><path d="m481.643 203.132.121-1.377c.198-2.252-1.755-4.101-3.993-3.779l-12.652 1.821c-1.244.179-2.437-.15-3.395-.812l-40.726 54.251c3.911 2.859 9.245 3.779 14.317 1.485l14.339-6.486c18.027-8.153 30.255-25.394 31.989-45.103z" fill="#ffaec1"/></g><g><path d="m176.603 504.233-1.378-.107c-2.254-.175-3.756-2.405-3.071-4.56l3.875-12.181c.803-2.524-.597-5.22-3.123-6.016l-12.192-3.84c-2.156-.679-3.116-3.191-1.962-5.135 10.536-17.747 29.824-28.432 50.457-27.952l14.352.334c11.274.262 17.817 12.867 11.544 22.238l-8.754 13.078c-11.005 16.442-30.022 25.67-49.748 24.141z" fill="#ffcad3"/><path d="m176.604 504.233-1.378-.107c-2.254-.175-3.756-2.405-3.071-4.56l3.875-12.181c.381-1.198.253-2.428-.243-3.482l60.207-31.255c2.177 4.328 2.208 9.74-.889 14.366l-8.754 13.078c-11.005 16.442-30.022 25.67-49.747 24.141z" fill="#ffaec1"/></g><g><path d="m33.327 142.24-1.346-.314c-2.202-.514-4.307 1.16-4.304 3.42l.019 12.783c.004 2.649-2.144 4.797-4.793 4.793l-12.783-.019c-2.261-.003-3.934 2.102-3.42 4.304 4.689 20.099 19.853 36.107 39.669 41.876l13.783 4.013c10.827 3.152 20.869-6.89 17.717-17.717l-4.399-15.11c-5.53-18.997-20.875-33.534-40.143-38.029z" fill="#ffcad3"/><path d="m33.327 142.24-1.346-.314c-2.202-.514-4.307 1.16-4.304 3.42l.019 12.783c.002 1.257-.492 2.391-1.282 3.246l47.968 47.968c3.382-3.469 5.044-8.62 3.488-13.964l-4.399-15.111c-5.531-18.996-20.876-33.533-40.144-38.028z" fill="#ffaec1"/><g fill="#231f20"><path d="m285.377 286.2c.379 0 .762-.029 1.147-.087l58.66-8.88c3.757-.568 7.551-.956 11.277-1.152 4.194-.221 7.415-3.799 7.194-7.993s-3.809-7.437-7.993-7.193c-4.217.222-8.508.659-12.753 1.302l-58.661 8.881c-4.152.628-7.009 4.504-6.38 8.656.57 3.766 3.812 6.466 7.509 6.466z"/><path d="m510.999 315.378v-38.04c0-8.546-5.353-16.353-13.332-19.435l-30.516-11.781c12.494-10.49 20.6-25.649 22.067-42.323l.121-1.377c.299-3.401-.951-6.698-3.431-9.044-2.48-2.348-5.84-3.417-9.219-2.928-4.157.598-7.042 4.452-6.444 8.609.338 2.349 1.716 4.293 3.601 5.431-2.121 16.103-12.444 30.088-27.325 36.818l-14.339 6.486c-3.256 1.468-5.82-.031-6.771-.746s-3.111-2.758-2.605-6.294l2.03-14.212c2.526-17.686 14.439-32.693 31.091-39.163 3.914-1.522 5.855-5.928 4.334-9.842-1.521-3.913-5.927-5.852-9.841-4.334-21.766 8.458-37.337 28.072-40.639 51.189l-.065.454c-18.319-4.701-37.603-4.934-56.044-.636l-25.266-16.087c-19.932-12.684-29.128-37.351-22.365-59.99l5.381-18.003c4.253-3.169 8.003-6.976 11.101-11.281 5.421 7.56 12.915 13.539 21.682 17.106 3.89 1.581 8.327-.288 9.908-4.178 1.582-3.89-.289-8.327-4.179-9.909-9.039-3.676-16.127-11.047-19.447-20.222-1.193-3.299-4.351-5.53-7.86-5.551-.017 0-.034 0-.051 0-3.496 0-6.664 2.192-7.893 5.467-2.804 7.463-8.004 13.774-14.668 17.974l-.474-3.023c-.468-2.984-2.071-5.606-4.515-7.381-2.443-1.776-5.43-2.491-8.414-2.014l-3.185.51c1.76-7.705 6.137-14.65 12.448-19.563 2.767-2.153 3.913-5.846 2.85-9.188-1.065-3.35-4.141-5.708-7.655-5.868-7.965-.36-15.573-3.356-21.627-8.396l2.728-1.385c2.694-1.367 4.692-3.702 5.625-6.575.934-2.872.69-5.936-.685-8.625l-4.475-8.751c-1.912-3.74-6.495-5.219-10.232-3.308-3.739 1.912-5.22 6.493-3.308 10.233l2.683 5.246-5.453 2.768c-2.885 1.465-4.911 4.247-5.419 7.443-.486 3.056.464 6.184 2.55 8.452 6.276 7.378 14.499 12.786 23.595 15.696-5.515 7.492-8.886 16.467-9.568 25.906l-.077 1.061c-.228 3.156.979 6.194 3.311 8.334 2.332 2.138 5.459 3.074 8.589 2.58l5.819-.931.72 4.587c.153.974.436 1.903.818 2.779l-13.98 21.773c-19.253 30.01-11.964 70.239 16.577 91.591l1.17.874-4.253 1.387c-20.906 6.813-44.062 1.947-60.446-12.704l-37.873-33.878-26.842-26.841c-3.539-3.539-5.249-8.215-5.159-12.862 5.096-8.38 8.397-17.76 9.64-27.56l.443-3.499c8.146-2.55 15.165-8.012 19.685-15.24 15.842 7.921 26.86 22.995 29.662 40.344l-8.891-1.43c-3.396-.537-6.793.274-9.581 2.292-2.778 2.028-4.603 5.008-5.13 8.394l-2.17 13.819c-.649 4.147 2.18 8.04 6.337 8.689.396.06.791.091 1.186.091 3.68 0 6.914-2.677 7.503-6.428l1.795-11.457 11.467 1.825c3.467.557 6.945-.487 9.53-2.859 2.596-2.382 3.934-5.748 3.68-9.256-1.086-15.014-6.961-29.01-16.359-40.154 13.733-3.331 26.328-10.922 35.724-22.066 2.707-3.214 2.301-8.009-.912-10.716-3.214-2.707-8.01-2.301-10.716.912-9.816 11.642-24.142 18.295-39.047 18.574-2.764-1.825-5.671-3.472-8.716-4.907l-3.859-1.819c-.772-.673-1.69-1.202-2.731-1.526-.33-.103-.663-.174-.995-.23l-.03-.014c0 .003-.001.006-.001.009-3.686-.611-7.353 1.567-8.494 5.237-2.464 7.924-9.676 13.652-17.945 14.255-4.188.306-7.336 3.949-7.03 8.138.086 1.184.445 2.281 1.001 3.245l-.492 3.861c-1.277 10.017-5.282 19.486-11.588 27.374-2.626 3.275-2.088 8.06 1.186 10.686.619.494 1.299.857 2.003 1.13 1.394 4.715 3.868 9.174 7.412 12.993-19.519-2.033-39.736 4.256-54.724 18.776l-41.456 40.179c-2.717 2.646-3.082 6.884-.852 9.946 2.231 3.062 6.377 4.015 9.723 2.23l35.495-18.918c20.855-11.102 46.85-6.965 63.234 10.057l24.918 25.906c-7.15-.626-14.461-.016-21.613 1.935-10.99 3.001-20.936 8.973-28.732 17.286l-7.099 7.556c-1.254-4.443-3.129-8.73-5.609-12.719l-.563-.906c-1.671-2.687-4.432-4.435-7.576-4.795-3.145-.358-6.229.719-8.466 2.961l-4.161 4.173-3.679-3.69c-2.965-2.972-7.78-2.982-10.753-.015-2.974 2.964-2.981 7.779-.016 10.753l6.457 6.475c2.133 2.14 4.971 3.318 7.991 3.318s5.858-1.178 7.991-3.318l2.277-2.283c3.105 7.268 3.646 15.459 1.427 23.144-.973 3.371.273 7.034 3.101 9.112 1.477 1.085 3.236 1.632 4.997 1.632 1.618 0 3.237-.461 4.639-1.388 8.436-5.564 18.899-7.368 28.706-4.946 4.079 1.007 8.199-1.482 9.204-5.56 1.006-4.076-1.483-8.198-5.56-9.204-6.854-1.692-13.931-1.922-20.781-.784l8.553-9.104c5.88-6.255 13.373-10.767 21.656-13.028 16.386-4.466 33.894.355 45.685 12.583l1.764 1.834c5.799 6.033 12.501 11.051 19.932 14.924 3.731 1.936 8.314.497 10.26-3.224 1.947-3.721.497-8.314-3.224-10.26-5.972-3.112-11.355-7.138-16.009-11.984l-1.723-1.795c-.029-.03-.06-.059-.089-.089l-52.956-55.044c-18.553-19.283-46.708-25.712-71.487-17.215l4.978-4.816c19.902-19.283 51.686-19.912 72.338-1.45l37.969 33.964c20.409 18.249 49.263 24.312 75.288 15.826l57.81-18.847c19.085-6.215 39.654-6.638 58.904-1.35-.606 7.518 2.575 14.617 8.684 19.204 3.904 2.931 8.458 4.428 13.078 4.428 3.059 0 6.146-.656 9.091-1.988l12.277-5.553 41.466 15.999c2.149.832 3.599 2.941 3.599 5.242v26.611l-74.064-31.313c-.66-.276-1.331-.552-1.991-.819-3.895-1.569-8.326.314-9.895 4.209-1.57 3.895.314 8.326 4.209 9.896.597.241 1.204.491 1.778.732l79.963 33.806v12.407c0 4.197 3.407 7.604 7.604 7.604s7.604-3.407 7.604-7.604v-17.403c.002-.03.002-.059.002-.088zm-212.625-84.079c-22.193-16.586-27.85-47.864-12.896-71.193l3.741-5.819c-3.427 25.965 8.435 52.295 31.014 66.671l14.221 9.049-26.327 8.584z"/><path d="m487.05 380.986-75.118-50.927c-19.548-13.245-42.359-20.247-65.968-20.247h-46.079c-4.199 0-7.604 3.404-7.604 7.604s3.404 7.604 7.604 7.604h46.079c6.165 0 12.265.559 18.247 1.638l-13.836 23.546c-11.953 20.369-36.286 30.436-59.158 24.485l-38.922-10.138c-3.67-.953-7.472.943-8.932 4.43-1.46 3.498-.122 7.543 3.143 9.47l49.669 29.452c6.783 4.005 14.123 6.793 21.808 8.273.487.101.973.142 1.45.142 3.569 0 6.752-2.524 7.452-6.164.801-4.126-1.896-8.111-6.022-8.901-5.961-1.156-11.669-3.325-16.941-6.438l-5.951-3.538c26.076 2.504 51.97-10.29 65.525-33.366l16.004-27.257c7.55 2.619 14.797 6.143 21.62 10.511l-26.503 38.229c-1.572 2.261-3.325 4.41-5.201 6.377-2.9 3.042-2.798 7.847.243 10.747 3.042 2.899 7.847 2.788 10.747-.244 2.433-2.535 4.684-5.302 6.702-8.222l26.63-38.395 64.781 43.919c1.307.886 2.791 1.311 4.26 1.311 2.437 0 4.831-1.169 6.301-3.338 2.354-3.477 1.446-8.206-2.03-10.563z"/><path d="m96.343 117.043c-9.161 10.765-14.9 24.322-15.947 38.876l-.112 1.5c-.253 3.508 1.085 6.884 3.68 9.256 2.595 2.383 6.063 3.427 9.54 2.869l13.799-2.21c4.146-.659 6.975-4.562 6.306-8.709-.659-4.146-4.562-6.955-8.699-6.306l-9.013 1.44c1.888-13.904 9.314-26.387 20.363-34.727 3.3-.149 6.611-.53 9.91-1.153l3.475-.663c.828.298 1.703.456 2.584.456 1.464 0 2.945-.423 4.249-1.304.275-.186.527-.391.77-.604l.074-.014c-.01-.008-.019-.018-.029-.027 2.79-2.495 3.384-6.725 1.231-9.913-2.273-3.365-3.475-7.302-3.475-11.385 0-11.233 9.139-20.371 20.371-20.371 6.102 0 11.833 2.703 15.723 7.417 2.673 3.239 7.466 3.697 10.704 1.024 2.485-2.051 3.327-5.349 2.379-8.237 1.263-2.353 2.378-4.761 3.342-7.213 12.738-8.676 28.758-11.719 44.063-7.949 4.076 1.014 8.202-1.48 9.206-5.556s-1.48-8.202-5.556-9.206c-14.61-3.61-29.731-2.33-43.235 3.168 1.076-14.09-2.262-28.424-9.962-40.812-2.21-3.569-6.904-4.664-10.473-2.444s-4.654 6.904-2.443 10.473c9.136 14.685 10.332 32.898 3.474 48.57-5.204-2.881-11.103-4.444-17.221-4.444-6.288 0-12.196 1.647-17.328 4.521-6.084-14.741-5.479-31.481 1.735-45.738l6.357 6.377c2.971 2.97 7.786 2.981 10.757.02 2.971-2.971 2.981-7.787.02-10.757l-9.875-9.905c-2.484-2.484-5.911-3.701-9.398-3.285-3.498.396-6.56 2.342-8.415 5.323-12.938 20.808-14.025 46.908-3.01 68.671-4.041 5.772-6.421 12.787-6.421 20.352 0 3.026.401 6.001 1.142 8.881-17.111 2.489-34.415-3.248-46.611-15.377l8.03-4.076c3.072-1.551 5.343-4.218 6.397-7.482 1.064-3.265.791-6.752-.771-9.814l-6.367-12.44c-1.916-3.741-6.499-5.221-10.23-3.315-3.741 1.916-5.221 6.499-3.315 10.24l5.282 10.333-10.341 5.252c-3.133 1.592-5.333 4.471-6.032 7.918s.193 6.965 2.464 9.652c9.702 11.511 22.692 19.358 36.852 22.847z"/><path d="m129.495 400.495c-9.039-3.676-16.127-11.047-19.447-20.222-1.193-3.298-4.35-5.529-7.857-5.551-.018 0-.036 0-.053 0-3.494 0-6.661 2.19-7.894 5.467-2.804 7.463-8.004 13.774-14.668 17.974l-.474-3.023c-.468-2.984-2.071-5.606-4.515-7.381-2.443-1.775-5.431-2.49-8.414-2.014l-3.185.51c1.76-7.705 6.137-14.65 12.448-19.563 2.767-2.153 3.913-5.846 2.85-9.188-1.065-3.35-4.14-5.708-7.654-5.868-7.965-.36-15.574-3.356-21.628-8.396l2.73-1.386c2.693-1.367 4.69-3.702 5.624-6.574.933-2.873.69-5.936-.685-8.625l-4.475-8.751c-1.913-3.74-6.494-5.218-10.232-3.308-3.739 1.912-5.22 6.493-3.308 10.233l2.684 5.246-5.452 2.768c-2.885 1.464-4.911 4.246-5.42 7.441-.487 3.057.464 6.186 2.549 8.454 6.276 7.378 14.499 12.786 23.595 15.696-5.515 7.492-8.886 16.467-9.568 25.906l-.077 1.061c-.228 3.156.979 6.194 3.311 8.334 2.332 2.138 5.458 3.075 8.589 2.58l5.819-.931.72 4.589c.871 5.551 5.765 9.739 11.386 9.739.982 0 1.955-.19 2.865-.56 9.045-3.679 16.805-9.862 22.427-17.674 5.421 7.56 12.915 13.539 21.682 17.105 3.89 1.586 8.326-.287 9.908-4.179 1.58-3.891-.291-8.327-4.181-9.909z"/><path d="m157.439 391.233c-.933-12.916-6.753-25.041-16.135-33.858-.822-3.439-3.952-5.946-7.643-5.824-3.506.114-6.605 2.429-7.71 5.758-1.107 3.338-.004 7.054 2.744 9.246 7.899 6.304 12.847 15.698 13.575 25.772.289 4.003 3.626 7.056 7.576 7.056.184 0 .369-.006.556-.02 4.19-.302 7.34-3.942 7.037-8.13z"/><path d="m314.39 20.731c2.133 2.14 4.971 3.318 7.991 3.318s5.858-1.178 7.991-3.318l2.277-2.283c3.105 7.268 3.646 15.459 1.427 23.144-.972 3.369.272 7.03 3.097 9.109 1.476 1.086 3.237 1.633 4.999 1.633 1.617 0 3.237-.46 4.642-1.386 8.435-5.565 18.898-7.369 28.706-4.946 4.078 1.01 8.198-1.483 9.204-5.56 1.006-4.076-1.483-8.198-5.56-9.204-9.481-2.342-19.393-1.899-28.532 1.117.058-9.303-2.49-18.543-7.486-26.58l-.563-.906c-1.671-2.687-4.432-4.435-7.576-4.795-3.146-.357-6.229.72-8.466 2.961l-4.161 4.173-3.679-3.69c-2.965-2.973-7.78-2.982-10.753-.015-2.974 2.964-2.981 7.779-.016 10.753z"/><path d="m361.742 78.747c-.822-3.439-3.963-5.966-7.643-5.824-3.506.114-6.605 2.429-7.71 5.758-1.107 3.338-.004 7.054 2.744 9.246 7.899 6.304 12.847 15.698 13.575 25.772.289 4.003 3.626 7.056 7.576 7.056.184 0 .369-.006.556-.02 4.189-.303 7.339-3.944 7.036-8.132-.932-12.914-6.752-25.039-16.134-33.856z"/><path d="m223.738 437.175-14.352-.334c-.06-.001-.12-.002-.18-.002-4.117 0-7.502 3.289-7.598 7.427-.098 4.199 3.227 7.681 7.425 7.779l14.352.334c3.571.083 5.232 2.548 5.78 3.605.549 1.056 1.609 3.833-.378 6.801l-8.754 13.079c-8.749 13.071-23.439 20.866-39.016 20.929l2.259-7.102c1.005-3.159.718-6.521-.81-9.463-1.528-2.944-4.111-5.113-7.275-6.11l-12.192-3.84c-4.009-1.263-8.276.963-9.537 4.968-1.261 4.006.963 8.275 4.969 9.537l9.496 2.991-3.018 9.487c-1.035 3.252-.535 6.743 1.371 9.574 1.906 2.833 4.952 4.609 8.363 4.873l1.373.106c1.61.125 3.213.186 4.813.186 20.684-.001 40.226-10.323 51.843-27.677l8.754-13.079c4.513-6.742 4.976-15.065 1.238-22.267-3.74-7.201-10.814-11.613-18.926-11.802z"/><path d="m46.373 216.688c3.295 0 6.33-2.158 7.297-5.48 1.174-4.033-1.143-8.252-5.175-9.427-15.464-4.502-27.696-16.249-32.929-31.266l7.326.01h.019c3.309 0 6.42-1.288 8.76-3.629 2.345-2.345 3.634-5.462 3.629-8.778l-.011-7.452c14.828 4.759 26.484 16.626 30.881 31.727 1.174 4.032 5.396 6.344 9.427 5.175 4.032-1.174 6.349-5.394 5.175-9.427-6.29-21.601-23.807-38.196-45.713-43.306l-1.352-.317c-3.323-.774-6.764.001-9.437 2.125-2.672 2.125-4.201 5.3-4.196 8.713l.014 9.956-9.954-.014c-.007 0-.013 0-.02 0-3.407 0-6.575 1.529-8.696 4.196-2.125 2.673-2.899 6.113-2.123 9.439 5.305 22.74 22.528 40.921 44.949 47.449.71.208 1.425.306 2.129.306z"/></g></g></g></g><g id="_x34_6_Yakitori"/><g id="_x34_5_Fan"/><g id="_x34_4_Calendar"/><g id="_x34_3_Boat"/><g id="_x34_2_Mochi"/><g id="_x34_1_Den_Den_Daiko"/><g id="_x34_0_Tickets"/><g id="_x33_9_Garden_Chair"/><g id="_x33_8_Woman"/><g id="_x33_7_Bridge"/><g id="_x33_6_No_Pick"/><g id="_x33_5_Picnic_Mat"/><g id="_x33_4_Foodstall"/><g id="_x33_3_Lantern"/><g id="_x33_2_Shamisen"/><g id="_x33_1_Kimono"/><g id="_x33_0_Fan"/><g id="_x32_9_Mic"/><g id="_x32_8_Yukata"/><g id="_x32_7_Location"/><g id="_x32_6_Geta"/><g id="_x32_5_Sushi"/><g id="_x32_4_Bucket"/><g id="_x32_3_Camera"/><g id="_x32_2_Umbrella"/><g id="_x32_1_Fuji_Mountain"/><g id="_x32_0_Full_Moon"/><g id="_x31_9_Furoshiki"/><g id="_x31_8_Castle"/><g id="_x31_7_Green_Tea"/><g id="_x31_6_Boba_Drink"/><g id="_x31_5_Wind_Chime"/><g id="_x31_4_Takoyaki"/><g id="_x31_3_Omamori"/><g id="_x31_2_Kakigori"/><g id="_x31_1_Sakura_Tree"/><g id="_x31_0_Torii"/><g id="_x30_9_Teru_Teru_Bozu"/><g id="_x30_8_Shogi"/><g id="_x30_7_Onigiri"/><g id="_x30_6_Bento"/><g id="_x30_5_Mochi"/><g id="_x30_4_Ramen"/><g id="_x30_3_Dango"/><g id="_x30_2_Sake"/><g id="_x30_1_Sakura"/></svg>