<svg id="Capa_1" enable-background="new 0 0 512 512" height="512" viewBox="0 0 512 512" width="512" xmlns="http://www.w3.org/2000/svg" xmlns:xlink="http://www.w3.org/1999/xlink"><linearGradient id="SVGID_1_" gradientUnits="userSpaceOnUse" x1="74.346" x2="482.003" y1="469.967" y2="62.31"><stop offset="0" stop-color="#ffd7d7" stop-opacity="0"/><stop offset=".9981" stop-color="#ffb1b1"/></linearGradient><g><g><path d="m452.38 267.075c74.865-95.923 97.035-208.824-58.645-251.392-237.406-64.915-513.66 80.85-334.283 268.669 20.75 21.726 45.658 38.979 36.986 72.279-8.256 31.706-39.051 62.419-29.387 93.012 32.35 102.406 160.168-.708 306.369 53.08 85.448 31.437 134.155-22.856 121.844-75.661-12.375-53.079-85.881-104.895-42.884-159.987z" fill="url(#SVGID_1_)"/></g><g><g><g><path d="m444.635 178.959 5.121-11.208c1.513-3.311-.907-7.078-4.548-7.078h-27.703l-32.023-64.152c-.741-1.484-1.834-2.71-3.133-3.641h11.336c8.756 0 15.806-7.302 15.394-16.148-.367-7.883-6.884-14.351-14.77-14.662-5.247-.207-9.932 2.212-12.86 6.049-2.732 3.58-6.923 5.745-11.426 5.745h-228.401c-4.503 0-8.693-2.165-11.426-5.745-2.928-3.836-7.613-6.256-12.86-6.049-7.886.312-14.403 6.779-14.77 14.662-.412 8.846 6.639 16.148 15.394 16.148h11.336c-1.298.931-2.392 2.157-3.133 3.641l-32.023 64.152h-27.348c-3.641 0-6.061 3.767-4.548 7.078l5.121 11.208c2.362 5.17 6.357 9.252 11.203 11.776v25.457c-8.309 1.792-14.441 7.916-14.441 15.217 0 5.275 3.202 9.938 8.11 12.798l-3.039 20.001c-.46 3.026 1.883 5.751 4.943 5.751h18.853c3.061 0 5.403-2.725 4.943-5.751l-3.039-20.001c4.908-2.861 8.11-7.523 8.11-12.798 0-7.302-6.131-13.426-14.441-15.217v-22.678c.51.031 1.021.056 1.536.056h36.858l-2.182 24.001h.001l-22.106 243.231c-.266 2.928 2.039 5.453 4.979 5.453h43.237c2.761 0 5-2.239 5-5v-6.282l37.864-12.975c2.791 31.936 29.584 56.992 62.244 56.992 32.62 0 59.389-24.994 62.235-56.873l37.873 12.979v6.161c0 2.761 2.239 5 5 5h43.237c2.94 0 5.246-2.525 4.979-5.453l-24.287-267.232h36.858c.515 0 1.026-.024 1.536-.056v22.678c-8.309 1.791-14.441 7.916-14.441 15.217 0 5.275 3.202 9.938 8.11 12.798l-3.039 20.001c-.46 3.026 1.883 5.751 4.943 5.751h18.853c3.061 0 5.403-2.725 4.943-5.751l-3.039-20.001c4.908-2.861 8.11-7.523 8.11-12.798 0-7.301-6.131-13.426-14.44-15.217v-25.458c4.849-2.525 8.844-6.607 11.206-11.777zm-165.26 14.61h5.893v18.107h-5.893zm-37.104 0h27.104v18.107h-27.104zm-15.893 0h5.893v18.107h-5.893zm-70.486 0h60.486v18.107h-.344c-2.761 0-5 2.239-5 5v4.178h-55.142zm200.216 66.027-69.419 23.79c-2.021.693-3.379 2.593-3.379 4.73v92.145c-8.251-4.015-17.516-6.272-27.31-6.272-9.935 0-19.323 2.329-27.664 6.454v-92.326c0-2.137-1.358-4.037-3.379-4.73l-69.065-23.668v-16.761h55.142v4.178c0 2.761 2.239 5 5 5h79.578c2.761 0 5-2.239 5-5v-4.178h55.496zm0-38.742h-55.496v-4.178c0-2.761-2.239-5-5-5h-.345v-18.107h60.841z" fill="#0000ca" opacity=".1"/><g><g><g><g><g><path d="m154.387 235.202v196.286l70.57-24.184c2.021-.693 3.379-2.593 3.379-4.73v-138.458c0-2.137-1.358-4.037-3.379-4.73z" fill="#ff2c2c"/><g><g><g><g><path d="m209.85 296.228c-2.761 0-5-2.239-5-5v-.104c0-2.761 2.239-5 5-5s5 2.239 5 5v.104c0 2.761-2.239 5-5 5z" fill="#ef0000"/></g></g><g><g><path d="m209.85 327.007c-2.761 0-5-2.239-5-5v-.104c0-2.761 2.239-5 5-5s5 2.239 5 5v.104c0 2.762-2.239 5-5 5z" fill="#ef0000"/></g></g><g><g><path d="m209.85 357.786c-2.761 0-5-2.239-5-5v-.104c0-2.761 2.239-5 5-5s5 2.239 5 5v.104c0 2.761-2.239 5-5 5z" fill="#ef0000"/></g></g><g><g><path d="m209.85 388.565c-2.761 0-5-2.239-5-5v-.104c0-2.761 2.239-5 5-5s5 2.239 5 5v.104c0 2.762-2.239 5-5 5z" fill="#ef0000"/></g></g></g><g><g><g><path d="m192.025 291.977c-2.761 0-5-2.239-5-5v-.113c0-2.761 2.239-5 5-5s5 2.239 5 5v.113c0 2.761-2.238 5-5 5z" fill="#ef0000"/></g></g><g><g><path d="m192.025 325.593c-2.761 0-5-2.239-5-5v-.113c0-2.761 2.239-5 5-5s5 2.239 5 5v.113c0 2.761-2.238 5-5 5z" fill="#ef0000"/></g></g><g><g><path d="m192.025 359.21c-2.761 0-5-2.239-5-5v-.113c0-2.761 2.239-5 5-5s5 2.239 5 5v.113c0 2.761-2.238 5-5 5z" fill="#ef0000"/></g></g><g><g><path d="m192.025 392.827c-2.761 0-5-2.239-5-5v-.113c0-2.761 2.239-5 5-5s5 2.239 5 5v.113c0 2.761-2.238 5-5 5z" fill="#ef0000"/></g></g></g><g><g><g><path d="m172.987 286.861c-2.761 0-5-2.239-5-5v-.125c0-2.761 2.239-5 5-5s5 2.239 5 5v.125c0 2.761-2.239 5-5 5z" fill="#ef0000"/></g></g><g><g><path d="m172.987 323.892c-2.761 0-5-2.239-5-5v-.125c0-2.761 2.239-5 5-5s5 2.239 5 5v.125c0 2.761-2.239 5-5 5z" fill="#ef0000"/></g></g><g><g><path d="m172.987 360.923c-2.761 0-5-2.239-5-5v-.125c0-2.761 2.239-5 5-5s5 2.239 5 5v.125c0 2.761-2.239 5-5 5z" fill="#ef0000"/></g></g><g><g><path d="m172.987 397.954c-2.761 0-5-2.239-5-5v-.125c0-2.761 2.239-5 5-5s5 2.239 5 5v.125c0 2.761-2.239 5-5 5z" fill="#ef0000"/></g></g></g></g></g><g><g><g><g><path d="m209.85 292.228c-2.761 0-5-2.239-5-5v-.104c0-2.761 2.239-5 5-5s5 2.239 5 5v.104c0 2.761-2.239 5-5 5z" fill="#fa6"/></g></g><g><g><path d="m209.85 323.007c-2.761 0-5-2.239-5-5v-.104c0-2.761 2.239-5 5-5s5 2.239 5 5v.104c0 2.762-2.239 5-5 5z" fill="#fa6"/></g></g><g><g><path d="m209.85 353.786c-2.761 0-5-2.239-5-5v-.104c0-2.761 2.239-5 5-5s5 2.239 5 5v.104c0 2.761-2.239 5-5 5z" fill="#fa6"/></g></g><g><g><path d="m209.85 384.565c-2.761 0-5-2.239-5-5v-.104c0-2.761 2.239-5 5-5s5 2.239 5 5v.104c0 2.762-2.239 5-5 5z" fill="#fa6"/></g></g></g><g><g><g><path d="m192.025 287.977c-2.761 0-5-2.239-5-5v-.113c0-2.761 2.239-5 5-5s5 2.239 5 5v.113c0 2.761-2.238 5-5 5z" fill="#fa6"/></g></g><g><g><path d="m192.025 321.593c-2.761 0-5-2.239-5-5v-.113c0-2.761 2.239-5 5-5s5 2.239 5 5v.113c0 2.761-2.238 5-5 5z" fill="#fa6"/></g></g><g><g><path d="m192.025 355.21c-2.761 0-5-2.239-5-5v-.113c0-2.761 2.239-5 5-5s5 2.239 5 5v.113c0 2.761-2.238 5-5 5z" fill="#fa6"/></g></g><g><g><path d="m192.025 388.827c-2.761 0-5-2.239-5-5v-.113c0-2.761 2.239-5 5-5s5 2.239 5 5v.113c0 2.761-2.238 5-5 5z" fill="#fa6"/></g></g></g><g><g><g><path d="m172.987 282.861c-2.761 0-5-2.239-5-5v-.125c0-2.761 2.239-5 5-5s5 2.239 5 5v.125c0 2.761-2.239 5-5 5z" fill="#fa6"/></g></g><g><g><path d="m172.987 319.892c-2.761 0-5-2.239-5-5v-.125c0-2.761 2.239-5 5-5s5 2.239 5 5v.125c0 2.761-2.239 5-5 5z" fill="#fa6"/></g></g><g><g><path d="m172.987 356.923c-2.761 0-5-2.239-5-5v-.125c0-2.761 2.239-5 5-5s5 2.239 5 5v.125c0 2.761-2.239 5-5 5z" fill="#fa6"/></g></g><g><g><path d="m172.987 393.954c-2.761 0-5-2.239-5-5v-.125c0-2.761 2.239-5 5-5s5 2.239 5 5v.125c0 2.761-2.239 5-5 5z" fill="#fa6"/></g></g></g></g></g><g><g><path d="m357.259 235.202v196.286l-70.57-24.184c-2.021-.693-3.379-2.593-3.379-4.73v-138.458c0-2.137 1.358-4.037 3.379-4.73z" fill="#ff2c2c"/><g><g><g><g><g><path d="m301.796 296.228c-2.762 0-5-2.239-5-5v-.104c0-2.761 2.238-5 5-5s5 2.239 5 5v.104c0 2.761-2.238 5-5 5z" fill="#ef0000"/></g></g><g><g><path d="m301.796 327.007c-2.762 0-5-2.239-5-5v-.104c0-2.761 2.238-5 5-5s5 2.239 5 5v.104c0 2.762-2.238 5-5 5z" fill="#ef0000"/></g></g><g><g><path d="m301.796 357.786c-2.762 0-5-2.239-5-5v-.104c0-2.761 2.238-5 5-5s5 2.239 5 5v.104c0 2.761-2.238 5-5 5z" fill="#ef0000"/></g></g><g><g><path d="m301.796 388.565c-2.762 0-5-2.239-5-5v-.104c0-2.761 2.238-5 5-5s5 2.239 5 5v.104c0 2.762-2.238 5-5 5z" fill="#ef0000"/></g></g></g><g><g><g><path d="m319.62 291.977c-2.762 0-5-2.239-5-5v-.113c0-2.761 2.238-5 5-5s5 2.239 5 5v.113c0 2.761-2.238 5-5 5z" fill="#ef0000"/></g></g><g><g><path d="m319.62 325.593c-2.762 0-5-2.239-5-5v-.113c0-2.761 2.238-5 5-5s5 2.239 5 5v.113c0 2.761-2.238 5-5 5z" fill="#ef0000"/></g></g><g><g><path d="m319.62 359.21c-2.762 0-5-2.239-5-5v-.113c0-2.761 2.238-5 5-5s5 2.239 5 5v.113c0 2.761-2.238 5-5 5z" fill="#ef0000"/></g></g><g><g><path d="m319.62 392.827c-2.762 0-5-2.239-5-5v-.113c0-2.761 2.238-5 5-5s5 2.239 5 5v.113c0 2.761-2.238 5-5 5z" fill="#ef0000"/></g></g></g><g><g><g><path d="m338.659 286.861c-2.762 0-5-2.239-5-5v-.125c0-2.761 2.238-5 5-5s5 2.239 5 5v.125c0 2.761-2.238 5-5 5z" fill="#ef0000"/></g></g><g><g><path d="m338.659 323.892c-2.762 0-5-2.239-5-5v-.125c0-2.761 2.238-5 5-5s5 2.239 5 5v.125c0 2.761-2.238 5-5 5z" fill="#ef0000"/></g></g><g><g><path d="m338.659 360.923c-2.762 0-5-2.239-5-5v-.125c0-2.761 2.238-5 5-5s5 2.239 5 5v.125c0 2.761-2.238 5-5 5z" fill="#ef0000"/></g></g><g><g><path d="m338.659 397.954c-2.762 0-5-2.239-5-5v-.125c0-2.761 2.238-5 5-5s5 2.239 5 5v.125c0 2.761-2.238 5-5 5z" fill="#ef0000"/></g></g></g></g></g></g><g><g><g><g><path d="m301.796 292.228c-2.762 0-5-2.239-5-5v-.104c0-2.761 2.238-5 5-5s5 2.239 5 5v.104c0 2.761-2.238 5-5 5z" fill="#fa6"/></g></g><g><g><path d="m301.796 323.007c-2.762 0-5-2.239-5-5v-.104c0-2.761 2.238-5 5-5s5 2.239 5 5v.104c0 2.762-2.238 5-5 5z" fill="#fa6"/></g></g><g><g><path d="m301.796 353.786c-2.762 0-5-2.239-5-5v-.104c0-2.761 2.238-5 5-5s5 2.239 5 5v.104c0 2.761-2.238 5-5 5z" fill="#fa6"/></g></g><g><g><path d="m301.796 384.565c-2.762 0-5-2.239-5-5v-.104c0-2.761 2.238-5 5-5s5 2.239 5 5v.104c0 2.762-2.238 5-5 5z" fill="#fa6"/></g></g></g><g><g><g><path d="m319.62 287.977c-2.762 0-5-2.239-5-5v-.113c0-2.761 2.238-5 5-5s5 2.239 5 5v.113c0 2.761-2.238 5-5 5z" fill="#fa6"/></g></g><g><g><path d="m319.62 321.593c-2.762 0-5-2.239-5-5v-.113c0-2.761 2.238-5 5-5s5 2.239 5 5v.113c0 2.761-2.238 5-5 5z" fill="#fa6"/></g></g><g><g><path d="m319.62 355.21c-2.762 0-5-2.239-5-5v-.113c0-2.761 2.238-5 5-5s5 2.239 5 5v.113c0 2.761-2.238 5-5 5z" fill="#fa6"/></g></g><g><g><path d="m319.62 388.827c-2.762 0-5-2.239-5-5v-.113c0-2.761 2.238-5 5-5s5 2.239 5 5v.113c0 2.761-2.238 5-5 5z" fill="#fa6"/></g></g></g><g><g><g><path d="m338.659 282.861c-2.762 0-5-2.239-5-5v-.125c0-2.761 2.238-5 5-5s5 2.239 5 5v.125c0 2.761-2.238 5-5 5z" fill="#fa6"/></g></g><g><g><path d="m338.659 319.892c-2.762 0-5-2.239-5-5v-.125c0-2.761 2.238-5 5-5s5 2.239 5 5v.125c0 2.761-2.238 5-5 5z" fill="#fa6"/></g></g><g><g><path d="m338.659 356.923c-2.762 0-5-2.239-5-5v-.125c0-2.761 2.238-5 5-5s5 2.239 5 5v.125c0 2.761-2.238 5-5 5z" fill="#fa6"/></g></g><g><g><path d="m338.659 393.954c-2.762 0-5-2.239-5-5v-.125c0-2.761 2.238-5 5-5s5 2.239 5 5v.125c0 2.761-2.238 5-5 5z" fill="#fa6"/></g></g></g></g></g></g><g><g><path d="m140.158 196.854h231.33v22.103h-231.33z" fill="#ff9c33"/></g><g><path d="m295.612 228.135h-79.578c-2.761 0-5-2.239-5-5v-30.458c0-2.761 2.239-5 5-5h79.578c2.761 0 5 2.239 5 5v30.458c0 2.761-2.239 5-5 5z" fill="#ff2c2c"/></g></g><g><g><path d="m419.502 140.673-34.019-68.152c-1.693-3.391-5.157-5.534-8.947-5.534h-241.425c-3.79 0-7.254 2.143-8.947 5.534l-34.019 68.152z" fill="#ff4d4d"/><path d="m117.961 92.881h275.725c.643 0 1.274-.051 1.896-.128l-10.099-20.231c-1.693-3.391-5.157-5.534-8.947-5.534h-241.425c-3.79 0-7.255 2.143-8.947 5.534l-10.099 20.231c.622.077 1.252.128 1.896.128z" fill="#ff2c2c"/><path d="m357.023 140.673-20.424-73.685h-161.553l-20.423 73.685z" fill="#ff2c2c"/><path d="m343.776 92.881-7.177-25.893h-161.553l-7.176 25.893z" fill="#ef1818"/><path d="m291.498 140.673-7.065-73.685h-57.221l-7.064 73.685z" fill="#ff4d4d"/><path d="m286.916 92.881-2.483-25.893h-57.221l-2.482 25.893z" fill="#ff2c2c"/></g><g><g><g><path d="m150.892 442.254h-43.237c-2.94 0-5.246-2.525-4.979-5.453l25.504-280.627h27.712v281.08c0 2.762-2.239 5-5 5z" fill="#ff8a00"/><path d="m155.89 156.171v37.4h-31.11l3.4-37.4z" fill="#ff7300"/><path d="m109.363 363.215-6.688 73.587c-.266 2.928 2.039 5.453 4.979 5.453h43.237c2.761 0 5-2.239 5-5v-74.04l-23.264-5z" fill="#ff4d4d"/><path d="m155.892 363.215v-22.154h-44.515l-2.014 22.154z" fill="#fa6"/></g><g><path d="m361.108 442.254h43.237c2.94 0 5.246-2.525 4.979-5.453l-25.504-280.627h-27.712v281.08c0 2.762 2.239 5 5 5z" fill="#ff8a00"/><path d="m387.22 193.571h-31.11v-37.4h27.71z" fill="#ff7300"/><path d="m356.108 363.215v74.04c0 2.761 2.239 5 5 5h43.237c2.94 0 5.246-2.525 4.979-5.453l-6.688-73.587-23.265-5z" fill="#ff4d4d"/><path d="m402.637 363.215-2.013-22.154h-44.516v22.154z" fill="#fa6"/></g></g><g><path d="m421.896 169.57h-331.792c-9.786 0-18.672-5.71-22.739-14.611l-5.121-11.208c-1.513-3.311.907-7.078 4.548-7.078h378.416c3.641 0 6.061 3.766 4.548 7.078l-5.121 11.208c-4.067 8.901-12.953 14.611-22.739 14.611z" fill="#ff9c33"/></g></g><g><g><g><path d="m92.995 245.959h-18.854c-3.061 0-5.403-2.725-4.943-5.751l3.126-20.574h22.488l3.126 20.574c.46 3.026-1.883 5.751-4.943 5.751z" fill="#ff2c2c"/><path d="m437.859 245.959h-18.853c-3.061 0-5.403-2.725-4.943-5.751l3.126-20.574h22.488l3.126 20.574c.459 3.026-1.884 5.751-4.944 5.751z" fill="#ff2c2c"/><ellipse cx="83.568" cy="207.409" fill="#ff6c6c" rx="19.441" ry="15.763"/></g></g><ellipse cx="428.432" cy="207.409" fill="#ff6c6c" rx="19.441" ry="15.763"/></g></g><g><g><path d="m282.07 212.906h-52.495c-2.761 0-5-2.239-5-5s2.239-5 5-5h52.495c2.762 0 5 2.239 5 5s-2.238 5-5 5z" fill="#fa6"/></g></g></g><path d="m393.71 37.025c-5.603-.221-10.606 2.363-13.733 6.459-2.918 3.823-7.393 6.135-12.202 6.135h-223.905c-4.809 0-9.284-2.312-12.202-6.135-3.127-4.097-8.13-6.681-13.733-6.459-8.421.333-15.381 7.239-15.773 15.658-.44 9.447 7.089 17.244 16.439 17.244h274.443c9.35 0 16.879-7.797 16.439-17.244-.392-8.419-7.352-15.325-15.773-15.658z" fill="#ff9c33"/></g></g><g><g><circle cx="256" cy="412.488" fill="#ff9c33" r="62.5"/><path d="m449.183 157.037 5.121-11.208c1.421-3.11 1.166-6.684-.683-9.561s-4.994-4.594-8.413-4.594h-24.611l-28.326-56.747h.773c5.921 0 11.434-2.359 15.523-6.643 4.087-4.282 6.187-9.905 5.91-15.833-.512-11.016-9.548-19.986-20.57-20.421-6.965-.275-13.668 2.873-17.904 8.422-2.022 2.649-5.021 4.168-8.227 4.168h-223.906c-3.207 0-6.205-1.52-8.227-4.168-4.236-5.549-10.926-8.697-17.905-8.422-11.021.436-20.057 9.406-20.57 20.422-.276 5.928 1.823 11.551 5.911 15.833 4.089 4.284 9.603 6.643 15.523 6.643h.773l-28.326 56.747h-24.257c-3.419 0-6.564 1.717-8.413 4.594-1.848 2.877-2.104 6.451-.683 9.561l5.121 11.208c3.19 6.983 8.901 12.329 15.751 15.194v14.853c-11.086 1.966-19.44 10.331-19.44 20.324 0 5.947 2.963 11.314 7.695 15.103l-2.565 16.945c-.439 2.883.4 5.807 2.302 8.021 1.902 2.213 4.665 3.482 7.581 3.482h18.85c2.922 0 5.689-1.27 7.592-3.485 1.901-2.213 2.74-5.135 2.301-8.017l-2.575-16.943c4.736-3.789 7.701-9.158 7.701-15.107 0-9.993-8.354-18.358-19.441-20.324v-12.571c.511.026 1.021.056 1.536.056h31.383l-23.791 261.78c-.254 2.791.685 5.579 2.575 7.649 1.89 2.069 4.582 3.256 7.384 3.256h43.237c5.514 0 10-4.486 10-10v-2.71l28.735-9.847c5.765 31.409 33.323 55.291 66.373 55.291 33.01 0 60.542-23.824 66.352-55.177l28.755 9.854v2.589c0 5.514 4.486 10 10 10h43.238c2.803 0 5.494-1.187 7.384-3.257 1.891-2.07 2.828-4.858 2.574-7.648l-21.82-240.092c-.25-2.75-2.687-4.775-5.432-4.527-2.751.25-4.777 2.682-4.527 5.432l21.821 240.091h-43.238v-262.684h60.789c.515 0 1.025-.03 1.535-.056v12.571c-11.086 1.966-19.44 10.331-19.44 20.324 0 5.949 2.965 11.318 7.701 15.107l-2.574 16.94c-.44 2.883.397 5.805 2.299 8.019 1.902 2.215 4.67 3.486 7.593 3.486h18.851c2.916 0 5.679-1.269 7.58-3.482 1.902-2.213 2.741-5.137 2.303-8.016l-2.567-16.949c4.733-3.789 7.697-9.156 7.697-15.104 0-9.993-8.355-18.359-19.441-20.324v-14.853c6.847-2.866 12.558-8.212 15.749-15.195zm-338.871-95.658c-2.182-2.286-3.303-5.292-3.155-8.463.269-5.778 5.193-10.666 10.976-10.895.151-.006.301-.009.452-.009 3.561 0 6.939 1.663 9.109 4.506 3.93 5.148 9.826 8.101 16.176 8.101h223.907c6.35 0 12.246-2.953 16.176-8.101 2.261-2.962 5.837-4.633 9.561-4.497 5.783.229 10.707 5.115 10.977 10.894.147 3.172-.974 6.177-3.156 8.463-2.184 2.288-5.128 3.548-8.289 3.548h-274.444c-3.162.001-6.106-1.259-8.29-3.547zm20.239 13.548h250.544l28.326 56.747h-307.196zm-56.407 166.031 2.081-13.746c2.319.622 4.785.959 7.342.959 2.556 0 5.02-.336 7.337-.957l2.085 13.746zm23.865-33.549c0 5.834-6.613 10.763-14.441 10.763s-14.44-4.929-14.44-10.763 6.613-10.763 14.44-10.763 14.441 4.929 14.441 10.763zm52.883 229.845h-43.237l23.873-262.685h19.364zm105.108 32.734c-31.706 0-57.5-25.794-57.5-57.5s25.794-57.5 57.5-57.5 57.5 25.794 57.5 57.5-25.794 57.5-57.5 57.5zm95.107-45.894-27.661-9.479c.022-.708.054-1.414.054-2.127 0-25.522-14.24-47.778-35.19-59.248v-89.124l62.798-21.52v181.498zm0-192.07-66.039 22.631c-4.043 1.384-6.759 5.186-6.759 9.46v84.678c-6.989-2.455-14.493-3.806-22.31-3.806-7.949 0-15.576 1.391-22.664 3.926v-84.799c0-4.274-2.716-8.076-6.758-9.46l-41.164-14.107c-2.611-.896-5.456.497-6.351 3.109s.497 5.456 3.109 6.351l41.164 14.107v89.328c-20.754 11.527-34.836 33.668-34.836 59.044 0 .673.031 1.338.051 2.007l-27.659 9.478v-200.011h45.183c.422 5.129 4.723 9.175 9.958 9.175h79.579c5.235 0 9.536-4.046 9.958-9.175h45.537v8.064zm-55.495-39.348.006 30.458h-79.584v-30.458zm-69.234-10v-8.107h5.893v8.107zm15.893 0v-8.107h27.103v8.107zm37.103 0v-8.107h5.894v8.107zm-62.996 0h-.344c-5.235 0-9.536 4.046-9.958 9.174h-45.183v-17.281h55.486v8.107zm-10.344 19.174v12.11h-45.142v-12.11zm145.073 12.11h-45.495v-12.11h45.495zm0-22.11h-45.537c-.422-5.128-4.723-9.174-9.958-9.174h-.345v-8.107h55.84zm67.897 49.111 2.089-13.747c2.318.621 4.783.958 7.339.958 2.558 0 5.025-.337 7.344-.959l2.084 13.748zm23.869-33.552c0 5.834-6.613 10.763-14.441 10.763-7.827 0-14.44-4.929-14.44-10.763s6.613-10.763 14.44-10.763c7.828 0 14.441 4.929 14.441 10.763zm-20.977-42.84h-331.792c-7.807 0-14.947-4.588-18.191-11.688l-5.121-11.208h378.416l-5.121 11.208c-3.244 7.1-10.384 11.688-18.191 11.688z" fill="#0000ca"/></g><g><g><g><g><path d="m252.526 454.056c-5.344 0-10.331-1.009-14.417-3.9-4.605-3.259-7.391-8.453-8.28-15.438-.349-2.739 1.589-5.243 4.329-5.591 2.736-.353 5.243 1.589 5.591 4.329.528 4.149 1.881 6.942 4.136 8.538 5.552 3.928 16.923 1.471 26.958-.695 2.435-.526 4.734-1.022 6.993-1.444.459-.087.822-.464.874-.915.793-6.831-1.358-11.473-6.394-13.808-.991-.459-2.009-.927-3.047-1.404-2.725-1.252-5.542-2.546-8.437-3.948l-.543-.264c-.473-.229-.948-.46-1.42-.696-2.471-1.233-3.474-4.236-2.24-6.707s4.239-3.473 6.707-2.24c.438.219.881.434 1.321.647l.545.265c2.791 1.352 5.562 2.625 8.241 3.856 1.049.481 2.077.954 3.079 1.418 8.991 4.17 13.409 12.926 12.121 24.021-.549 4.831-4.152 8.695-8.966 9.603-2.129.397-4.361.879-6.725 1.39-6.661 1.438-13.816 2.983-20.426 2.983z" fill="#fff"/></g><g><path d="m258.278 432.755c-2.761 0-5-2.239-5-5v-.104c0-2.761 2.239-5 5-5 2.762 0 5 2.239 5 5v.104c0 2.762-2.238 5-5 5z" fill="#fff"/></g><g><path d="m261.104 419.346c-.765 0-1.53-.175-2.236-.528-.511-.255-1.021-.511-1.522-.766-.001 0-.001 0-.001 0-14.447-7.355-31.067-18.209-31.346-37.012-.039-2.635 1.211-5.124 3.344-6.659 2.122-1.526 4.861-1.92 7.329-1.053 7.729 2.715 13.616 5.849 17.994 9.581 9.493 8.076 11.439 18.409 11.439 31.438 0 1.733-.897 3.342-2.371 4.253-.804.495-1.716.746-2.63.746zm-24.849-35.506c1.297 7.945 7.471 14.921 19.444 21.934-.756-6.435-2.759-11.204-7.518-15.252-2.902-2.474-6.821-4.671-11.926-6.682z" fill="#fff"/></g></g><g><path d="m261.728 419.346c-.937 0-1.884-.263-2.727-.812-2.313-1.508-2.965-4.606-1.457-6.919 8.025-12.305 12.141-20.304 1.067-36.573-1.838 3.244-3.136 6.958-3.945 11.268-.509 2.714-3.124 4.5-5.836 3.992-2.714-.509-4.501-3.122-3.992-5.836 1.292-6.89 3.639-12.668 7.172-17.666 1.466-2.072 3.863-3.324 6.413-3.347h.072c2.553 0 4.971 1.222 6.481 3.278 16.574 22.564 10.546 35.622.943 50.346-.957 1.47-2.558 2.269-4.191 2.269z" fill="#fff"/></g></g></g></g></g><g><path d="m77.854 335.673c-2.761 0-5-2.239-5-5 0-3.033-2.467-5.5-5.5-5.5-2.761 0-5-2.239-5-5s2.239-5 5-5c3.033 0 5.5-2.467 5.5-5.5 0-2.761 2.239-5 5-5s5 2.239 5 5c0 3.033 2.467 5.5 5.5 5.5 2.761 0 5 2.239 5 5s-2.239 5-5 5c-3.033 0-5.5 2.467-5.5 5.5 0 2.762-2.239 5-5 5z" fill="#6c6cff"/></g><g><path d="m447.873 108.381c-2.762 0-5-2.239-5-5 0-3.033-2.468-5.5-5.5-5.5-2.762 0-5-2.239-5-5s2.238-5 5-5c3.032 0 5.5-2.467 5.5-5.5 0-2.761 2.238-5 5-5s5 2.239 5 5c0 3.033 2.468 5.5 5.5 5.5 2.762 0 5 2.239 5 5s-2.238 5-5 5c-3.032 0-5.5 2.467-5.5 5.5 0 2.761-2.238 5-5 5z" fill="#6c6cff"/></g><g><path d="m460.714 379.61c-2.762 0-5-2.239-5-5 0-3.033-2.468-5.5-5.5-5.5-2.762 0-5-2.239-5-5s2.238-5 5-5c3.032 0 5.5-2.467 5.5-5.5 0-2.761 2.238-5 5-5s5 2.239 5 5c0 3.033 2.468 5.5 5.5 5.5 2.762 0 5 2.239 5 5s-2.238 5-5 5c-3.032 0-5.5 2.467-5.5 5.5 0 2.762-2.238 5-5 5z" fill="#ff9c33"/></g><path d="m462.873 423.989c0-6.516-4.183-12.059-10-14.125v-4.105c0-2.761-2.238-5-5-5s-5 2.239-5 5v4.105c-5.817 2.066-10 7.609-10 14.125s4.183 12.059 10 14.125v4.105c0 2.761 2.238 5 5 5s5-2.239 5-5v-4.104c5.817-2.067 10-7.61 10-14.126zm-15 5c-2.757 0-5-2.243-5-5s2.243-5 5-5 5 2.243 5 5-2.243 5-5 5z" fill="#ff4d4d"/><path d="m78.665 65.232c0-6.516-4.184-12.059-10-14.125v-4.105c0-2.761-2.239-5-5-5s-5 2.239-5 5v4.105c-5.816 2.066-10 7.609-10 14.125s4.184 12.059 10 14.125v4.105c0 2.761 2.239 5 5 5s5-2.239 5-5v-4.105c5.816-2.065 10-7.609 10-14.125zm-15 5c-2.757 0-5-2.243-5-5s2.243-5 5-5 5 2.243 5 5-2.244 5-5 5z" fill="#ff9c33"/></g></g></svg>